<?xml version="1.0" encoding="utf-8"?>
<svg width="533px" height="683px" viewBox="0 0 533 683" version="1.1" xmlns:xlink="http://www.w3.org/1999/xlink" xmlns="http://www.w3.org/2000/svg">
  <desc>Created with Lunacy</desc>
  <g id="calc" transform="translate(92.5 73)">
    <path d="M0 0L347 0L347 136L0 136L0 0Z" id="Rectangle" fill="none" fill-rule="evenodd" stroke="#FFFFFF" stroke-width="7" stroke-linejoin="round" />
    <path d="M8.999 0L55.6941 0Q55.915 0 56.1356 0.0108397Q56.3563 0.0216794 56.5761 0.0433326Q56.796 0.0649859 57.0145 0.0974006Q57.233 0.129815 57.4497 0.172913Q57.6663 0.216011 57.8806 0.269689Q58.0949 0.323366 58.3063 0.387494Q58.5177 0.451622 58.7257 0.526045Q58.9337 0.600468 59.1378 0.685008Q59.3419 0.769548 59.5416 0.864Q59.7413 0.958453 59.9362 1.06259Q60.131 1.16673 60.3205 1.2803Q60.51 1.39387 60.6936 1.5166Q60.8773 1.63934 61.0548 1.77094Q61.2322 1.90253 61.403 2.04268Q61.5737 2.18282 61.7374 2.33118Q61.9011 2.47954 62.0573 2.63575Q62.2135 2.79195 62.3619 2.95564Q62.5102 3.11933 62.6504 3.29009Q62.7905 3.46086 62.9221 3.6383Q63.0537 3.81574 63.1765 3.99942Q63.2992 4.1831 63.4128 4.37259Q63.5263 4.56207 63.6305 4.7569Q63.7346 4.95173 63.8291 5.15143Q63.9235 5.35113 64.008 5.55523Q64.0926 5.75933 64.167 5.96733Q64.2414 6.17533 64.3056 6.38673Q64.3697 6.59813 64.4234 6.81242Q64.4771 7.02671 64.5201 7.24338Q64.5632 7.46005 64.5957 7.67857Q64.6281 7.89709 64.6497 8.11694Q64.6714 8.33679 64.6822 8.55744Q64.6931 8.77809 64.6931 8.999L64.6931 55.6941Q64.6931 55.915 64.6822 56.1356Q64.6714 56.3563 64.6497 56.5761Q64.6281 56.796 64.5957 57.0145Q64.5632 57.233 64.5201 57.4497Q64.4771 57.6663 64.4234 57.8806Q64.3697 58.0949 64.3056 58.3063Q64.2414 58.5177 64.167 58.7257Q64.0926 58.9337 64.008 59.1378Q63.9235 59.3419 63.8291 59.5416Q63.7346 59.7413 63.6305 59.9362Q63.5263 60.131 63.4128 60.3205Q63.2992 60.51 63.1765 60.6936Q63.0537 60.8773 62.9221 61.0548Q62.7905 61.2322 62.6504 61.403Q62.5102 61.5737 62.3619 61.7374Q62.2135 61.9011 62.0573 62.0573Q61.9011 62.2135 61.7374 62.3619Q61.5737 62.5102 61.403 62.6504Q61.2322 62.7905 61.0548 62.9221Q60.8773 63.0537 60.6936 63.1765Q60.51 63.2992 60.3205 63.4128Q60.131 63.5263 59.9362 63.6305Q59.7413 63.7346 59.5416 63.8291Q59.3419 63.9235 59.1378 64.008Q58.9337 64.0926 58.7257 64.167Q58.5177 64.2414 58.3063 64.3056Q58.0949 64.3697 57.8806 64.4234Q57.6663 64.4771 57.4497 64.5201Q57.233 64.5632 57.0145 64.5957Q56.796 64.6281 56.5761 64.6497Q56.3563 64.6714 56.1356 64.6822Q55.915 64.6931 55.6941 64.6931L8.999 64.6931Q8.77809 64.6931 8.55744 64.6822Q8.33679 64.6714 8.11694 64.6497Q7.89709 64.6281 7.67857 64.5957Q7.46005 64.5632 7.24338 64.5201Q7.02671 64.4771 6.81242 64.4234Q6.59813 64.3697 6.38673 64.3056Q6.17533 64.2414 5.96733 64.167Q5.75933 64.0926 5.55523 64.008Q5.35113 63.9235 5.15143 63.8291Q4.95173 63.7346 4.7569 63.6305Q4.56207 63.5263 4.37259 63.4128Q4.1831 63.2992 3.99942 63.1765Q3.81574 63.0537 3.6383 62.9221Q3.46086 62.7905 3.29009 62.6504Q3.11933 62.5102 2.95564 62.3619Q2.79195 62.2135 2.63575 62.0573Q2.47954 61.9011 2.33118 61.7374Q2.18282 61.5737 2.04268 61.403Q1.90253 61.2322 1.77094 61.0548Q1.63934 60.8773 1.5166 60.6936Q1.39387 60.51 1.2803 60.3205Q1.16673 60.131 1.06259 59.9362Q0.958453 59.7413 0.864 59.5416Q0.769548 59.3419 0.685008 59.1378Q0.600468 58.9337 0.526045 58.7257Q0.451622 58.5177 0.387494 58.3063Q0.323366 58.0949 0.269689 57.8806Q0.216011 57.6663 0.172913 57.4497Q0.129815 57.233 0.0974006 57.0145Q0.0649859 56.796 0.0433326 56.5761Q0.0216794 56.3563 0.0108397 56.1356Q0 55.915 0 55.6941L0 8.999Q0 8.77809 0.0108397 8.55744Q0.0216794 8.33679 0.0433326 8.11694Q0.0649859 7.89709 0.0974006 7.67857Q0.129815 7.46005 0.172913 7.24338Q0.216011 7.02671 0.269689 6.81242Q0.323366 6.59813 0.387494 6.38673Q0.451622 6.17533 0.526045 5.96733Q0.600468 5.75933 0.685008 5.55523Q0.769548 5.35113 0.864 5.15143Q0.958453 4.95173 1.06259 4.7569Q1.16673 4.56207 1.2803 4.37259Q1.39387 4.1831 1.5166 3.99942Q1.63934 3.81574 1.77094 3.6383Q1.90253 3.46086 2.04268 3.29009Q2.18282 3.11933 2.33118 2.95564Q2.47954 2.79195 2.63575 2.63575Q2.79195 2.47954 2.95564 2.33118Q3.11933 2.18282 3.29009 2.04268Q3.46086 1.90253 3.6383 1.77094Q3.81574 1.63934 3.99942 1.5166Q4.1831 1.39387 4.37259 1.2803Q4.56207 1.16673 4.7569 1.06259Q4.95173 0.958453 5.15143 0.864Q5.35113 0.769548 5.55523 0.685008Q5.75933 0.600468 5.96733 0.526045Q6.17533 0.451622 6.38673 0.387494Q6.59813 0.323366 6.81242 0.269689Q7.02671 0.216011 7.24338 0.172913Q7.46005 0.129815 7.67857 0.0974006Q7.89709 0.0649859 8.11694 0.0433326Q8.33679 0.0216794 8.55744 0.0108397Q8.77809 0 8.999 0Z" transform="translate(0.013793945 156.53467)" id="Rectangle-2" fill="#FFFFFF" fill-rule="evenodd" stroke="none" />
    <path d="M8.999 0L55.6941 0Q55.915 0 56.1356 0.0108397Q56.3563 0.0216794 56.5761 0.0433326Q56.796 0.0649859 57.0145 0.0974006Q57.233 0.129815 57.4497 0.172913Q57.6663 0.216011 57.8806 0.269689Q58.0949 0.323366 58.3063 0.387494Q58.5177 0.451622 58.7257 0.526045Q58.9337 0.600468 59.1378 0.685008Q59.3419 0.769548 59.5416 0.864Q59.7413 0.958453 59.9362 1.06259Q60.131 1.16673 60.3205 1.2803Q60.51 1.39387 60.6936 1.5166Q60.8773 1.63934 61.0548 1.77094Q61.2322 1.90253 61.403 2.04268Q61.5737 2.18282 61.7374 2.33118Q61.9011 2.47954 62.0573 2.63575Q62.2135 2.79195 62.3619 2.95564Q62.5102 3.11933 62.6504 3.29009Q62.7905 3.46086 62.9221 3.6383Q63.0537 3.81574 63.1765 3.99942Q63.2992 4.1831 63.4128 4.37259Q63.5263 4.56207 63.6305 4.7569Q63.7346 4.95173 63.8291 5.15143Q63.9235 5.35113 64.008 5.55523Q64.0926 5.75933 64.167 5.96733Q64.2414 6.17533 64.3056 6.38673Q64.3697 6.59813 64.4234 6.81242Q64.4771 7.02671 64.5201 7.24338Q64.5632 7.46005 64.5957 7.67857Q64.6281 7.89709 64.6497 8.11694Q64.6714 8.33679 64.6822 8.55744Q64.6931 8.77809 64.6931 8.999L64.6931 55.6941Q64.6931 55.915 64.6822 56.1356Q64.6714 56.3563 64.6497 56.5761Q64.6281 56.796 64.5957 57.0145Q64.5632 57.233 64.5201 57.4497Q64.4771 57.6663 64.4234 57.8806Q64.3697 58.0949 64.3056 58.3063Q64.2414 58.5177 64.167 58.7257Q64.0926 58.9337 64.008 59.1378Q63.9235 59.3419 63.8291 59.5416Q63.7346 59.7413 63.6305 59.9362Q63.5263 60.131 63.4128 60.3205Q63.2992 60.51 63.1765 60.6936Q63.0537 60.8773 62.9221 61.0548Q62.7905 61.2322 62.6504 61.403Q62.5102 61.5737 62.3619 61.7374Q62.2135 61.9011 62.0573 62.0573Q61.9011 62.2135 61.7374 62.3619Q61.5737 62.5102 61.403 62.6504Q61.2322 62.7905 61.0548 62.9221Q60.8773 63.0537 60.6936 63.1765Q60.51 63.2992 60.3205 63.4128Q60.131 63.5263 59.9362 63.6305Q59.7413 63.7346 59.5416 63.8291Q59.3419 63.9235 59.1378 64.008Q58.9337 64.0926 58.7257 64.167Q58.5177 64.2414 58.3063 64.3056Q58.0949 64.3697 57.8806 64.4234Q57.6663 64.4771 57.4497 64.5201Q57.233 64.5632 57.0145 64.5957Q56.796 64.6281 56.5761 64.6497Q56.3563 64.6714 56.1356 64.6822Q55.915 64.6931 55.6941 64.6931L8.999 64.6931Q8.77809 64.6931 8.55744 64.6822Q8.33679 64.6714 8.11694 64.6497Q7.89709 64.6281 7.67857 64.5957Q7.46005 64.5632 7.24338 64.5201Q7.02671 64.4771 6.81242 64.4234Q6.59813 64.3697 6.38673 64.3056Q6.17533 64.2414 5.96733 64.167Q5.75933 64.0926 5.55523 64.008Q5.35113 63.9235 5.15143 63.8291Q4.95173 63.7346 4.7569 63.6305Q4.56207 63.5263 4.37259 63.4128Q4.1831 63.2992 3.99942 63.1765Q3.81574 63.0537 3.6383 62.9221Q3.46086 62.7905 3.29009 62.6504Q3.11933 62.5102 2.95564 62.3619Q2.79195 62.2135 2.63575 62.0573Q2.47954 61.9011 2.33118 61.7374Q2.18282 61.5737 2.04268 61.403Q1.90253 61.2322 1.77094 61.0548Q1.63934 60.8773 1.5166 60.6936Q1.39387 60.51 1.2803 60.3205Q1.16673 60.131 1.06259 59.9362Q0.958453 59.7413 0.864 59.5416Q0.769548 59.3419 0.685008 59.1378Q0.600468 58.9337 0.526045 58.7257Q0.451622 58.5177 0.387494 58.3063Q0.323366 58.0949 0.269689 57.8806Q0.216011 57.6663 0.172913 57.4497Q0.129815 57.233 0.0974006 57.0145Q0.0649859 56.796 0.0433326 56.5761Q0.0216794 56.3563 0.0108397 56.1356Q0 55.915 0 55.6941L0 8.999Q0 8.77809 0.0108397 8.55744Q0.0216794 8.33679 0.0433326 8.11694Q0.0649859 7.89709 0.0974006 7.67857Q0.129815 7.46005 0.172913 7.24338Q0.216011 7.02671 0.269689 6.81242Q0.323366 6.59813 0.387494 6.38673Q0.451622 6.17533 0.526045 5.96733Q0.600468 5.75933 0.685008 5.55523Q0.769548 5.35113 0.864 5.15143Q0.958453 4.95173 1.06259 4.7569Q1.16673 4.56207 1.2803 4.37259Q1.39387 4.1831 1.5166 3.99942Q1.63934 3.81574 1.77094 3.6383Q1.90253 3.46086 2.04268 3.29009Q2.18282 3.11933 2.33118 2.95564Q2.47954 2.79195 2.63575 2.63575Q2.79195 2.47954 2.95564 2.33118Q3.11933 2.18282 3.29009 2.04268Q3.46086 1.90253 3.6383 1.77094Q3.81574 1.63934 3.99942 1.5166Q4.1831 1.39387 4.37259 1.2803Q4.56207 1.16673 4.7569 1.06259Q4.95173 0.958453 5.15143 0.864Q5.35113 0.769548 5.55523 0.685008Q5.75933 0.600468 5.96733 0.526045Q6.17533 0.451622 6.38673 0.387494Q6.59813 0.323366 6.81242 0.269689Q7.02671 0.216011 7.24338 0.172913Q7.46005 0.129815 7.67857 0.0974006Q7.89709 0.0649859 8.11694 0.0433326Q8.33679 0.0216794 8.55744 0.0108397Q8.77809 0 8.999 0Z" transform="translate(91.70685 156.53467)" id="Rectangle-2-Copy" fill="#FFFFFF" fill-rule="evenodd" stroke="none" />
    <path d="M8.999 0L55.6941 0Q55.915 0 56.1356 0.0108397Q56.3563 0.0216794 56.5761 0.0433326Q56.796 0.0649859 57.0145 0.0974006Q57.233 0.129815 57.4497 0.172913Q57.6663 0.216011 57.8806 0.269689Q58.0949 0.323366 58.3063 0.387494Q58.5177 0.451622 58.7257 0.526045Q58.9337 0.600468 59.1378 0.685008Q59.3419 0.769548 59.5416 0.864Q59.7413 0.958453 59.9362 1.06259Q60.131 1.16673 60.3205 1.2803Q60.51 1.39387 60.6936 1.5166Q60.8773 1.63934 61.0548 1.77094Q61.2322 1.90253 61.403 2.04268Q61.5737 2.18282 61.7374 2.33118Q61.9011 2.47954 62.0573 2.63575Q62.2135 2.79195 62.3619 2.95564Q62.5102 3.11933 62.6504 3.29009Q62.7905 3.46086 62.9221 3.6383Q63.0537 3.81574 63.1765 3.99942Q63.2992 4.1831 63.4128 4.37259Q63.5263 4.56207 63.6305 4.7569Q63.7346 4.95173 63.8291 5.15143Q63.9235 5.35113 64.008 5.55523Q64.0926 5.75933 64.167 5.96733Q64.2414 6.17533 64.3056 6.38673Q64.3697 6.59813 64.4234 6.81242Q64.4771 7.02671 64.5201 7.24338Q64.5632 7.46005 64.5957 7.67857Q64.6281 7.89709 64.6497 8.11694Q64.6714 8.33679 64.6822 8.55744Q64.6931 8.77809 64.6931 8.999L64.6931 55.6941Q64.6931 55.915 64.6822 56.1356Q64.6714 56.3563 64.6497 56.5761Q64.6281 56.796 64.5957 57.0145Q64.5632 57.233 64.5201 57.4497Q64.4771 57.6663 64.4234 57.8806Q64.3697 58.0949 64.3056 58.3063Q64.2414 58.5177 64.167 58.7257Q64.0926 58.9337 64.008 59.1378Q63.9235 59.3419 63.8291 59.5416Q63.7346 59.7413 63.6305 59.9362Q63.5263 60.131 63.4128 60.3205Q63.2992 60.51 63.1765 60.6936Q63.0537 60.8773 62.9221 61.0548Q62.7905 61.2322 62.6504 61.403Q62.5102 61.5737 62.3619 61.7374Q62.2135 61.9011 62.0573 62.0573Q61.9011 62.2135 61.7374 62.3619Q61.5737 62.5102 61.403 62.6504Q61.2322 62.7905 61.0548 62.9221Q60.8773 63.0537 60.6936 63.1765Q60.51 63.2992 60.3205 63.4128Q60.131 63.5263 59.9362 63.6305Q59.7413 63.7346 59.5416 63.8291Q59.3419 63.9235 59.1378 64.008Q58.9337 64.0926 58.7257 64.167Q58.5177 64.2414 58.3063 64.3056Q58.0949 64.3697 57.8806 64.4234Q57.6663 64.4771 57.4497 64.5201Q57.233 64.5632 57.0145 64.5957Q56.796 64.6281 56.5761 64.6497Q56.3563 64.6714 56.1356 64.6822Q55.915 64.6931 55.6941 64.6931L8.999 64.6931Q8.77809 64.6931 8.55744 64.6822Q8.33679 64.6714 8.11694 64.6497Q7.89709 64.6281 7.67857 64.5957Q7.46005 64.5632 7.24338 64.5201Q7.02671 64.4771 6.81242 64.4234Q6.59813 64.3697 6.38673 64.3056Q6.17533 64.2414 5.96733 64.167Q5.75933 64.0926 5.55523 64.008Q5.35113 63.9235 5.15143 63.8291Q4.95173 63.7346 4.7569 63.6305Q4.56207 63.5263 4.37259 63.4128Q4.1831 63.2992 3.99942 63.1765Q3.81574 63.0537 3.6383 62.9221Q3.46086 62.7905 3.29009 62.6504Q3.11933 62.5102 2.95564 62.3619Q2.79195 62.2135 2.63575 62.0573Q2.47954 61.9011 2.33118 61.7374Q2.18282 61.5737 2.04268 61.403Q1.90253 61.2322 1.77094 61.0548Q1.63934 60.8773 1.5166 60.6936Q1.39387 60.51 1.2803 60.3205Q1.16673 60.131 1.06259 59.9362Q0.958453 59.7413 0.864 59.5416Q0.769548 59.3419 0.685008 59.1378Q0.600468 58.9337 0.526045 58.7257Q0.451622 58.5177 0.387494 58.3063Q0.323366 58.0949 0.269689 57.8806Q0.216011 57.6663 0.172913 57.4497Q0.129815 57.233 0.0974006 57.0145Q0.0649859 56.796 0.0433326 56.5761Q0.0216794 56.3563 0.0108397 56.1356Q0 55.915 0 55.6941L0 8.999Q0 8.77809 0.0108397 8.55744Q0.0216794 8.33679 0.0433326 8.11694Q0.0649859 7.89709 0.0974006 7.67857Q0.129815 7.46005 0.172913 7.24338Q0.216011 7.02671 0.269689 6.81242Q0.323366 6.59813 0.387494 6.38673Q0.451622 6.17533 0.526045 5.96733Q0.600468 5.75933 0.685008 5.55523Q0.769548 5.35113 0.864 5.15143Q0.958453 4.95173 1.06259 4.7569Q1.16673 4.56207 1.2803 4.37259Q1.39387 4.1831 1.5166 3.99942Q1.63934 3.81574 1.77094 3.6383Q1.90253 3.46086 2.04268 3.29009Q2.18282 3.11933 2.33118 2.95564Q2.47954 2.79195 2.63575 2.63575Q2.79195 2.47954 2.95564 2.33118Q3.11933 2.18282 3.29009 2.04268Q3.46086 1.90253 3.6383 1.77094Q3.81574 1.63934 3.99942 1.5166Q4.1831 1.39387 4.37259 1.2803Q4.56207 1.16673 4.7569 1.06259Q4.95173 0.958453 5.15143 0.864Q5.35113 0.769548 5.55523 0.685008Q5.75933 0.600468 5.96733 0.526045Q6.17533 0.451622 6.38673 0.387494Q6.59813 0.323366 6.81242 0.269689Q7.02671 0.216011 7.24338 0.172913Q7.46005 0.129815 7.67857 0.0974006Q7.89709 0.0649859 8.11694 0.0433326Q8.33679 0.0216794 8.55744 0.0108397Q8.77809 0 8.999 0Z" transform="translate(0.70700073 472.92078)" id="Rectangle-2-Copy-4" fill="#FFFFFF" fill-rule="evenodd" stroke="none" />
    <path d="M8.999 0L55.6941 0Q55.915 0 56.1356 0.0108397Q56.3563 0.0216794 56.5761 0.0433326Q56.796 0.0649859 57.0145 0.0974006Q57.233 0.129815 57.4497 0.172913Q57.6663 0.216011 57.8806 0.269689Q58.0949 0.323366 58.3063 0.387494Q58.5177 0.451622 58.7257 0.526045Q58.9337 0.600468 59.1378 0.685008Q59.3419 0.769548 59.5416 0.864Q59.7413 0.958453 59.9362 1.06259Q60.131 1.16673 60.3205 1.2803Q60.51 1.39387 60.6936 1.5166Q60.8773 1.63934 61.0548 1.77094Q61.2322 1.90253 61.403 2.04268Q61.5737 2.18282 61.7374 2.33118Q61.9011 2.47954 62.0573 2.63575Q62.2135 2.79195 62.3619 2.95564Q62.5102 3.11933 62.6504 3.29009Q62.7905 3.46086 62.9221 3.6383Q63.0537 3.81574 63.1765 3.99942Q63.2992 4.1831 63.4128 4.37259Q63.5263 4.56207 63.6305 4.7569Q63.7346 4.95173 63.8291 5.15143Q63.9235 5.35113 64.008 5.55523Q64.0926 5.75933 64.167 5.96733Q64.2414 6.17533 64.3056 6.38673Q64.3697 6.59813 64.4234 6.81242Q64.4771 7.02671 64.5201 7.24338Q64.5632 7.46005 64.5957 7.67857Q64.6281 7.89709 64.6497 8.11694Q64.6714 8.33679 64.6822 8.55744Q64.6931 8.77809 64.6931 8.999L64.6931 55.6941Q64.6931 55.915 64.6822 56.1356Q64.6714 56.3563 64.6497 56.5761Q64.6281 56.796 64.5957 57.0145Q64.5632 57.233 64.5201 57.4497Q64.4771 57.6663 64.4234 57.8806Q64.3697 58.0949 64.3056 58.3063Q64.2414 58.5177 64.167 58.7257Q64.0926 58.9337 64.008 59.1378Q63.9235 59.3419 63.8291 59.5416Q63.7346 59.7413 63.6305 59.9362Q63.5263 60.131 63.4128 60.3205Q63.2992 60.51 63.1765 60.6936Q63.0537 60.8773 62.9221 61.0548Q62.7905 61.2322 62.6504 61.403Q62.5102 61.5737 62.3619 61.7374Q62.2135 61.9011 62.0573 62.0573Q61.9011 62.2135 61.7374 62.3619Q61.5737 62.5102 61.403 62.6504Q61.2322 62.7905 61.0548 62.9221Q60.8773 63.0537 60.6936 63.1765Q60.51 63.2992 60.3205 63.4128Q60.131 63.5263 59.9362 63.6305Q59.7413 63.7346 59.5416 63.8291Q59.3419 63.9235 59.1378 64.008Q58.9337 64.0926 58.7257 64.167Q58.5177 64.2414 58.3063 64.3056Q58.0949 64.3697 57.8806 64.4234Q57.6663 64.4771 57.4497 64.5201Q57.233 64.5632 57.0145 64.5957Q56.796 64.6281 56.5761 64.6497Q56.3563 64.6714 56.1356 64.6822Q55.915 64.6931 55.6941 64.6931L8.999 64.6931Q8.77809 64.6931 8.55744 64.6822Q8.33679 64.6714 8.11694 64.6497Q7.89709 64.6281 7.67857 64.5957Q7.46005 64.5632 7.24338 64.5201Q7.02671 64.4771 6.81242 64.4234Q6.59813 64.3697 6.38673 64.3056Q6.17533 64.2414 5.96733 64.167Q5.75933 64.0926 5.55523 64.008Q5.35113 63.9235 5.15143 63.8291Q4.95173 63.7346 4.7569 63.6305Q4.56207 63.5263 4.37259 63.4128Q4.1831 63.2992 3.99942 63.1765Q3.81574 63.0537 3.6383 62.9221Q3.46086 62.7905 3.29009 62.6504Q3.11933 62.5102 2.95564 62.3619Q2.79195 62.2135 2.63575 62.0573Q2.47954 61.9011 2.33118 61.7374Q2.18282 61.5737 2.04268 61.403Q1.90253 61.2322 1.77094 61.0548Q1.63934 60.8773 1.5166 60.6936Q1.39387 60.51 1.2803 60.3205Q1.16673 60.131 1.06259 59.9362Q0.958453 59.7413 0.864 59.5416Q0.769548 59.3419 0.685008 59.1378Q0.600468 58.9337 0.526045 58.7257Q0.451622 58.5177 0.387494 58.3063Q0.323366 58.0949 0.269689 57.8806Q0.216011 57.6663 0.172913 57.4497Q0.129815 57.233 0.0974006 57.0145Q0.0649859 56.796 0.0433326 56.5761Q0.0216794 56.3563 0.0108397 56.1356Q0 55.915 0 55.6941L0 8.999Q0 8.77809 0.0108397 8.55744Q0.0216794 8.33679 0.0433326 8.11694Q0.0649859 7.89709 0.0974006 7.67857Q0.129815 7.46005 0.172913 7.24338Q0.216011 7.02671 0.269689 6.81242Q0.323366 6.59813 0.387494 6.38673Q0.451622 6.17533 0.526045 5.96733Q0.600468 5.75933 0.685008 5.55523Q0.769548 5.35113 0.864 5.15143Q0.958453 4.95173 1.06259 4.7569Q1.16673 4.56207 1.2803 4.37259Q1.39387 4.1831 1.5166 3.99942Q1.63934 3.81574 1.77094 3.6383Q1.90253 3.46086 2.04268 3.29009Q2.18282 3.11933 2.33118 2.95564Q2.47954 2.79195 2.63575 2.63575Q2.79195 2.47954 2.95564 2.33118Q3.11933 2.18282 3.29009 2.04268Q3.46086 1.90253 3.6383 1.77094Q3.81574 1.63934 3.99942 1.5166Q4.1831 1.39387 4.37259 1.2803Q4.56207 1.16673 4.7569 1.06259Q4.95173 0.958453 5.15143 0.864Q5.35113 0.769548 5.55523 0.685008Q5.75933 0.600468 5.96733 0.526045Q6.17533 0.451622 6.38673 0.387494Q6.59813 0.323366 6.81242 0.269689Q7.02671 0.216011 7.24338 0.172913Q7.46005 0.129815 7.67857 0.0974006Q7.89709 0.0649859 8.11694 0.0433326Q8.33679 0.0216794 8.55744 0.0108397Q8.77809 0 8.999 0Z" transform="translate(183.3999 267.22772)" id="Rectangle-2-Copy-10" fill="#FFFFFF" fill-rule="evenodd" stroke="none" />
    <path d="M8.999 0L149.001 0Q149.222 0 149.443 0.0108397Q149.663 0.0216794 149.883 0.0433326Q150.103 0.0649859 150.321 0.0974006Q150.54 0.129815 150.757 0.172913Q150.973 0.216011 151.188 0.269689Q151.402 0.323366 151.613 0.387494Q151.825 0.451622 152.033 0.526045Q152.241 0.600468 152.445 0.685008Q152.649 0.769548 152.849 0.864Q153.048 0.958453 153.243 1.06259Q153.438 1.16673 153.627 1.2803Q153.817 1.39387 154.001 1.5166Q154.184 1.63934 154.362 1.77094Q154.539 1.90253 154.71 2.04268Q154.881 2.18282 155.044 2.33118Q155.208 2.47954 155.364 2.63575Q155.52 2.79195 155.669 2.95564Q155.817 3.11933 155.957 3.29009Q156.097 3.46086 156.229 3.6383Q156.361 3.81574 156.483 3.99942Q156.606 4.1831 156.72 4.37259Q156.833 4.56207 156.937 4.7569Q157.042 4.95173 157.136 5.15143Q157.23 5.35113 157.315 5.55523Q157.4 5.75933 157.474 5.96733Q157.548 6.17533 157.613 6.38673Q157.677 6.59813 157.73 6.81242Q157.784 7.02671 157.827 7.24338Q157.87 7.46005 157.903 7.67857Q157.935 7.89709 157.957 8.11694Q157.978 8.33679 157.989 8.55744Q158 8.77809 158 8.999L158 55.6941Q158 55.915 157.989 56.1356Q157.978 56.3563 157.957 56.5761Q157.935 56.796 157.903 57.0145Q157.87 57.233 157.827 57.4497Q157.784 57.6663 157.73 57.8806Q157.677 58.0949 157.612 58.3063Q157.548 58.5177 157.474 58.7257Q157.4 58.9337 157.315 59.1378Q157.23 59.3419 157.136 59.5416Q157.042 59.7413 156.937 59.9362Q156.833 60.131 156.72 60.3205Q156.606 60.51 156.483 60.6936Q156.361 60.8773 156.229 61.0548Q156.097 61.2322 155.957 61.403Q155.817 61.5737 155.669 61.7374Q155.52 61.9011 155.364 62.0573Q155.208 62.2135 155.044 62.3619Q154.881 62.5102 154.71 62.6504Q154.539 62.7905 154.362 62.9221Q154.184 63.0537 154.001 63.1765Q153.817 63.2992 153.627 63.4128Q153.438 63.5263 153.243 63.6305Q153.048 63.7346 152.849 63.8291Q152.649 63.9235 152.445 64.008Q152.241 64.0926 152.033 64.167Q151.825 64.2414 151.613 64.3056Q151.402 64.3697 151.188 64.4234Q150.973 64.4771 150.757 64.5201Q150.54 64.5632 150.321 64.5957Q150.103 64.6281 149.883 64.6497Q149.663 64.6714 149.443 64.6822Q149.222 64.6931 149.001 64.6931L8.999 64.6931Q8.77809 64.6931 8.55744 64.6822Q8.33679 64.6714 8.11694 64.6497Q7.89709 64.6281 7.67857 64.5957Q7.46005 64.5632 7.24338 64.5201Q7.02671 64.4771 6.81242 64.4234Q6.59813 64.3697 6.38673 64.3056Q6.17533 64.2414 5.96733 64.167Q5.75933 64.0926 5.55523 64.008Q5.35113 63.9235 5.15143 63.8291Q4.95173 63.7346 4.7569 63.6305Q4.56207 63.5263 4.37259 63.4128Q4.1831 63.2992 3.99942 63.1765Q3.81574 63.0537 3.6383 62.9221Q3.46086 62.7905 3.29009 62.6504Q3.11933 62.5102 2.95564 62.3619Q2.79195 62.2135 2.63575 62.0573Q2.47954 61.9011 2.33118 61.7374Q2.18282 61.5737 2.04268 61.403Q1.90253 61.2322 1.77094 61.0548Q1.63934 60.8773 1.5166 60.6936Q1.39387 60.51 1.2803 60.3205Q1.16673 60.131 1.06259 59.9362Q0.958453 59.7413 0.864 59.5416Q0.769548 59.3419 0.685008 59.1378Q0.600468 58.9337 0.526045 58.7257Q0.451622 58.5177 0.387494 58.3063Q0.323366 58.0949 0.269689 57.8806Q0.216011 57.6663 0.172913 57.4497Q0.129815 57.233 0.0974006 57.0145Q0.0649859 56.796 0.0433326 56.5761Q0.0216794 56.3563 0.0108397 56.1356Q0 55.915 0 55.6941L0 8.999Q0 8.77809 0.0108397 8.55744Q0.0216794 8.33679 0.0433326 8.11694Q0.0649859 7.89709 0.0974006 7.67857Q0.129815 7.46005 0.172913 7.24338Q0.216011 7.02671 0.269689 6.81242Q0.323366 6.59813 0.387494 6.38673Q0.451622 6.17533 0.526045 5.96733Q0.600468 5.75933 0.685008 5.55523Q0.769548 5.35113 0.864 5.15143Q0.958453 4.95173 1.06259 4.7569Q1.16673 4.56207 1.2803 4.37259Q1.39387 4.1831 1.5166 3.99942Q1.63934 3.81574 1.77094 3.6383Q1.90253 3.46086 2.04268 3.29009Q2.18282 3.11933 2.33118 2.95564Q2.47954 2.79195 2.63575 2.63575Q2.79195 2.47954 2.95564 2.33118Q3.11933 2.18282 3.29009 2.04268Q3.46086 1.90253 3.6383 1.77094Q3.81574 1.63934 3.99942 1.5166Q4.1831 1.39387 4.37259 1.2803Q4.56207 1.16673 4.7569 1.06259Q4.95173 0.958453 5.15143 0.864Q5.35113 0.769548 5.55523 0.685008Q5.75933 0.600468 5.96733 0.526045Q6.17533 0.451622 6.38673 0.387494Q6.59813 0.323366 6.81242 0.269689Q7.02671 0.216011 7.24338 0.172913Q7.46005 0.129815 7.67857 0.0974006Q7.89709 0.0649859 8.11694 0.0433326Q8.33679 0.0216794 8.55744 0.0108397Q8.77809 0 8.999 0Z" transform="translate(92.400055 472.89996)" id="Rectangle-2-Copy-11" fill="#FFFFFF" fill-rule="evenodd" stroke="none" />
    <path d="M77.9254 38.9617L77.9254 38.9637Q77.9254 39.9202 77.8785 40.8755Q77.8316 41.8308 77.7378 42.7826Q77.6441 43.7345 77.5037 44.6806Q77.3634 45.6267 77.1768 46.5648Q76.9902 47.5028 76.7578 48.4306Q76.5254 49.3584 76.2477 50.2737Q75.9701 51.189 75.6479 52.0895Q75.3257 52.9901 74.9596 53.8737Q74.5936 54.7574 74.1847 55.622Q73.7757 56.4866 73.3249 57.3301Q72.874 58.1736 72.3823 58.994Q71.8906 59.8144 71.3592 60.6097Q70.8278 61.4049 70.258 62.1732Q69.6883 62.9414 69.0815 63.6808Q68.4747 64.4201 67.8324 65.1288Q67.1901 65.8375 66.5138 66.5138Q65.8375 67.1901 65.1288 67.8324Q64.4201 68.4747 63.6808 69.0815Q62.9414 69.6883 62.1732 70.258Q61.4049 70.8278 60.6097 71.3592Q59.8144 71.8906 58.994 72.3823Q58.1736 72.874 57.3301 73.3249Q56.4866 73.7757 55.622 74.1847Q54.7574 74.5936 53.8737 74.9596Q52.9901 75.3257 52.0895 75.6479Q51.189 75.9701 50.2737 76.2477Q49.3584 76.5254 48.4306 76.7578Q47.5028 76.9902 46.5648 77.1768Q45.6267 77.3634 44.6806 77.5037Q43.7345 77.6441 42.7826 77.7378Q41.8308 77.8316 40.8755 77.8785Q39.9202 77.9254 38.9637 77.9254L38.9617 77.9254Q38.0052 77.9254 37.0499 77.8785Q36.0946 77.8316 35.1428 77.7378Q34.1909 77.6441 33.2448 77.5037Q32.2987 77.3634 31.3607 77.1768Q30.4226 76.9902 29.4948 76.7578Q28.567 76.5254 27.6517 76.2477Q26.7364 75.9701 25.8359 75.6479Q24.9354 75.3257 24.0517 74.9596Q23.1681 74.5936 22.3034 74.1847Q21.4388 73.7757 20.5953 73.3249Q19.7518 72.874 18.9314 72.3823Q18.111 71.8906 17.3157 71.3592Q16.5205 70.8278 15.7522 70.258Q14.984 69.6883 14.2447 69.0815Q13.5053 68.4747 12.7966 67.8324Q12.0879 67.1901 11.4116 66.5138Q10.7353 65.8375 10.093 65.1288Q9.45067 64.4201 8.8439 63.6808Q8.23713 62.9414 7.66737 62.1732Q7.09761 61.4049 6.56623 60.6097Q6.03485 59.8144 5.54314 58.994Q5.05142 58.1736 4.60055 57.3301Q4.14968 56.4866 3.74074 55.622Q3.3318 54.7574 2.96578 53.8737Q2.59976 52.9901 2.27754 52.0895Q1.95532 51.189 1.67768 50.2737Q1.40003 49.3584 1.16763 48.4306Q0.935233 47.5028 0.748638 46.5648Q0.562043 45.6267 0.421702 44.6806Q0.28136 43.7345 0.187611 42.7826Q0.0938622 41.8308 0.0469311 40.8755Q0 39.9202 0 38.9637L0 38.9617Q0 38.0052 0.0469311 37.0499Q0.0938622 36.0946 0.187611 35.1428Q0.28136 34.1909 0.421702 33.2448Q0.562043 32.2987 0.748638 31.3607Q0.935233 30.4226 1.16763 29.4948Q1.40003 28.567 1.67768 27.6517Q1.95532 26.7364 2.27754 25.8359Q2.59976 24.9354 2.96578 24.0517Q3.3318 23.1681 3.74074 22.3034Q4.14968 21.4388 4.60055 20.5953Q5.05142 19.7518 5.54314 18.9314Q6.03485 18.111 6.56623 17.3157Q7.09761 16.5205 7.66737 15.7522Q8.23713 14.984 8.8439 14.2447Q9.45067 13.5053 10.093 12.7966Q10.7353 12.0879 11.4116 11.4116Q12.0879 10.7353 12.7966 10.093Q13.5053 9.45067 14.2447 8.8439Q14.984 8.23713 15.7522 7.66737Q16.5205 7.09761 17.3157 6.56623Q18.111 6.03485 18.9314 5.54314Q19.7518 5.05142 20.5953 4.60055Q21.4388 4.14968 22.3034 3.74074Q23.1681 3.3318 24.0517 2.96578Q24.9354 2.59976 25.8359 2.27754Q26.7364 1.95532 27.6517 1.67768Q28.567 1.40003 29.4948 1.16763Q30.4226 0.935233 31.3607 0.748638Q32.2987 0.562043 33.2448 0.421702Q34.1909 0.28136 35.1428 0.187611Q36.0946 0.0938622 37.0499 0.0469311Q38.0052 0 38.9617 0L38.9637 0Q39.9202 0 40.8755 0.0469311Q41.8308 0.0938622 42.7826 0.187611Q43.7345 0.28136 44.6806 0.421702Q45.6267 0.562043 46.5648 0.748638Q47.5028 0.935233 48.4306 1.16763Q49.3584 1.40003 50.2737 1.67768Q51.189 1.95532 52.0895 2.27754Q52.9901 2.59976 53.8737 2.96578Q54.7574 3.3318 55.622 3.74074Q56.4866 4.14968 57.3301 4.60055Q58.1736 5.05142 58.994 5.54314Q59.8144 6.03485 60.6097 6.56623Q61.4049 7.09761 62.1732 7.66737Q62.9414 8.23713 63.6808 8.8439Q64.4201 9.45067 65.1288 10.093Q65.8375 10.7353 66.5138 11.4116Q67.1901 12.0879 67.8324 12.7966Q68.4747 13.5053 69.0815 14.2447Q69.6883 14.984 70.258 15.7522Q70.8278 16.5205 71.3592 17.3157Q71.8906 18.111 72.3823 18.9314Q72.874 19.7518 73.3249 20.5953Q73.7757 21.4388 74.1847 22.3034Q74.5936 23.1681 74.9596 24.0517Q75.3257 24.9354 75.6479 25.8359Q75.9701 26.7364 76.2477 27.6517Q76.5254 28.567 76.7578 29.4948Q76.9902 30.4226 77.1768 31.3607Q77.3634 32.2987 77.5037 33.2448Q77.6441 34.1909 77.7378 35.1428Q77.8316 36.0946 77.8785 37.0499Q77.9254 38.0052 77.9254 38.9617Z" transform="translate(269.23486 459.67456)" id="Rectangle-2-Copy-12" fill="#FFFFFF" fill-rule="evenodd" stroke="none" />
    <path d="M8.999 0L55.6941 0Q55.915 0 56.1356 0.0108397Q56.3563 0.0216794 56.5761 0.0433326Q56.796 0.0649859 57.0145 0.0974006Q57.233 0.129815 57.4497 0.172913Q57.6663 0.216011 57.8806 0.269689Q58.0949 0.323366 58.3063 0.387494Q58.5177 0.451622 58.7257 0.526045Q58.9337 0.600468 59.1378 0.685008Q59.3419 0.769548 59.5416 0.864Q59.7413 0.958453 59.9362 1.06259Q60.131 1.16673 60.3205 1.2803Q60.51 1.39387 60.6936 1.5166Q60.8773 1.63934 61.0548 1.77094Q61.2322 1.90253 61.403 2.04268Q61.5737 2.18282 61.7374 2.33118Q61.9011 2.47954 62.0573 2.63575Q62.2135 2.79195 62.3619 2.95564Q62.5102 3.11933 62.6504 3.29009Q62.7905 3.46086 62.9221 3.6383Q63.0537 3.81574 63.1765 3.99942Q63.2992 4.1831 63.4128 4.37259Q63.5263 4.56207 63.6305 4.7569Q63.7346 4.95173 63.8291 5.15143Q63.9235 5.35113 64.008 5.55523Q64.0926 5.75933 64.167 5.96733Q64.2414 6.17533 64.3056 6.38673Q64.3697 6.59813 64.4234 6.81242Q64.4771 7.02671 64.5201 7.24338Q64.5632 7.46005 64.5957 7.67857Q64.6281 7.89709 64.6497 8.11694Q64.6714 8.33679 64.6822 8.55744Q64.6931 8.77809 64.6931 8.999L64.6931 55.6941Q64.6931 55.915 64.6822 56.1356Q64.6714 56.3563 64.6497 56.5761Q64.6281 56.796 64.5957 57.0145Q64.5632 57.233 64.5201 57.4497Q64.4771 57.6663 64.4234 57.8806Q64.3697 58.0949 64.3056 58.3063Q64.2414 58.5177 64.167 58.7257Q64.0926 58.9337 64.008 59.1378Q63.9235 59.3419 63.8291 59.5416Q63.7346 59.7413 63.6305 59.9362Q63.5263 60.131 63.4128 60.3205Q63.2992 60.51 63.1765 60.6936Q63.0537 60.8773 62.9221 61.0548Q62.7905 61.2322 62.6504 61.403Q62.5102 61.5737 62.3619 61.7374Q62.2135 61.9011 62.0573 62.0573Q61.9011 62.2135 61.7374 62.3619Q61.5737 62.5102 61.403 62.6504Q61.2322 62.7905 61.0548 62.9221Q60.8773 63.0537 60.6936 63.1765Q60.51 63.2992 60.3205 63.4128Q60.131 63.5263 59.9362 63.6305Q59.7413 63.7346 59.5416 63.8291Q59.3419 63.9235 59.1378 64.008Q58.9337 64.0926 58.7257 64.167Q58.5177 64.2414 58.3063 64.3056Q58.0949 64.3697 57.8806 64.4234Q57.6663 64.4771 57.4497 64.5201Q57.233 64.5632 57.0145 64.5957Q56.796 64.6281 56.5761 64.6497Q56.3563 64.6714 56.1356 64.6822Q55.915 64.6931 55.6941 64.6931L8.999 64.6931Q8.77809 64.6931 8.55744 64.6822Q8.33679 64.6714 8.11694 64.6497Q7.89709 64.6281 7.67857 64.5957Q7.46005 64.5632 7.24338 64.5201Q7.02671 64.4771 6.81242 64.4234Q6.59813 64.3697 6.38673 64.3056Q6.17533 64.2414 5.96733 64.167Q5.75933 64.0926 5.55523 64.008Q5.35113 63.9235 5.15143 63.8291Q4.95173 63.7346 4.7569 63.6305Q4.56207 63.5263 4.37259 63.4128Q4.1831 63.2992 3.99942 63.1765Q3.81574 63.0537 3.6383 62.9221Q3.46086 62.7905 3.29009 62.6504Q3.11933 62.5102 2.95564 62.3619Q2.79195 62.2135 2.63575 62.0573Q2.47954 61.9011 2.33118 61.7374Q2.18282 61.5737 2.04268 61.403Q1.90253 61.2322 1.77094 61.0548Q1.63934 60.8773 1.5166 60.6936Q1.39387 60.51 1.2803 60.3205Q1.16673 60.131 1.06259 59.9362Q0.958453 59.7413 0.864 59.5416Q0.769548 59.3419 0.685008 59.1378Q0.600468 58.9337 0.526045 58.7257Q0.451622 58.5177 0.387494 58.3063Q0.323366 58.0949 0.269689 57.8806Q0.216011 57.6663 0.172913 57.4497Q0.129815 57.233 0.0974006 57.0145Q0.0649859 56.796 0.0433326 56.5761Q0.0216794 56.3563 0.0108397 56.1356Q0 55.915 0 55.6941L0 8.999Q0 8.77809 0.0108397 8.55744Q0.0216794 8.33679 0.0433326 8.11694Q0.0649859 7.89709 0.0974006 7.67857Q0.129815 7.46005 0.172913 7.24338Q0.216011 7.02671 0.269689 6.81242Q0.323366 6.59813 0.387494 6.38673Q0.451622 6.17533 0.526045 5.96733Q0.600468 5.75933 0.685008 5.55523Q0.769548 5.35113 0.864 5.15143Q0.958453 4.95173 1.06259 4.7569Q1.16673 4.56207 1.2803 4.37259Q1.39387 4.1831 1.5166 3.99942Q1.63934 3.81574 1.77094 3.6383Q1.90253 3.46086 2.04268 3.29009Q2.18282 3.11933 2.33118 2.95564Q2.47954 2.79195 2.63575 2.63575Q2.79195 2.47954 2.95564 2.33118Q3.11933 2.18282 3.29009 2.04268Q3.46086 1.90253 3.6383 1.77094Q3.81574 1.63934 3.99942 1.5166Q4.1831 1.39387 4.37259 1.2803Q4.56207 1.16673 4.7569 1.06259Q4.95173 0.958453 5.15143 0.864Q5.35113 0.769548 5.55523 0.685008Q5.75933 0.600468 5.96733 0.526045Q6.17533 0.451622 6.38673 0.387494Q6.59813 0.323366 6.81242 0.269689Q7.02671 0.216011 7.24338 0.172913Q7.46005 0.129815 7.67857 0.0974006Q7.89709 0.0649859 8.11694 0.0433326Q8.33679 0.0216794 8.55744 0.0108397Q8.77809 0 8.999 0Z" transform="translate(91.70685 267.22772)" id="Rectangle-2-Copy-6" fill="#FFFFFF" fill-rule="evenodd" stroke="none" />
    <path d="M77.9254 38.9617L77.9254 38.9637Q77.9254 39.9202 77.8785 40.8755Q77.8316 41.8308 77.7378 42.7826Q77.6441 43.7345 77.5037 44.6806Q77.3634 45.6267 77.1768 46.5648Q76.9902 47.5028 76.7578 48.4306Q76.5254 49.3584 76.2477 50.2737Q75.9701 51.189 75.6479 52.0895Q75.3257 52.9901 74.9596 53.8737Q74.5936 54.7574 74.1847 55.622Q73.7757 56.4866 73.3249 57.3301Q72.874 58.1736 72.3823 58.994Q71.8906 59.8144 71.3592 60.6097Q70.8278 61.4049 70.258 62.1732Q69.6883 62.9414 69.0815 63.6808Q68.4747 64.4201 67.8324 65.1288Q67.1901 65.8375 66.5138 66.5138Q65.8375 67.1901 65.1288 67.8324Q64.4201 68.4747 63.6808 69.0815Q62.9414 69.6883 62.1732 70.258Q61.4049 70.8278 60.6097 71.3592Q59.8144 71.8906 58.994 72.3823Q58.1736 72.874 57.3301 73.3249Q56.4866 73.7757 55.622 74.1847Q54.7574 74.5936 53.8737 74.9596Q52.9901 75.3257 52.0895 75.6479Q51.189 75.9701 50.2737 76.2477Q49.3584 76.5254 48.4306 76.7578Q47.5028 76.9902 46.5648 77.1768Q45.6267 77.3634 44.6806 77.5037Q43.7345 77.6441 42.7826 77.7378Q41.8308 77.8316 40.8755 77.8785Q39.9202 77.9254 38.9637 77.9254L38.9617 77.9254Q38.0052 77.9254 37.0499 77.8785Q36.0946 77.8316 35.1428 77.7378Q34.1909 77.6441 33.2448 77.5037Q32.2987 77.3634 31.3607 77.1768Q30.4226 76.9902 29.4948 76.7578Q28.567 76.5254 27.6517 76.2477Q26.7364 75.9701 25.8359 75.6479Q24.9354 75.3257 24.0517 74.9596Q23.1681 74.5936 22.3034 74.1847Q21.4388 73.7757 20.5953 73.3249Q19.7518 72.874 18.9314 72.3823Q18.111 71.8906 17.3157 71.3592Q16.5205 70.8278 15.7522 70.258Q14.984 69.6883 14.2447 69.0815Q13.5053 68.4747 12.7966 67.8324Q12.0879 67.1901 11.4116 66.5138Q10.7353 65.8375 10.093 65.1288Q9.45067 64.4201 8.8439 63.6808Q8.23713 62.9414 7.66737 62.1732Q7.09761 61.4049 6.56623 60.6097Q6.03485 59.8144 5.54314 58.994Q5.05142 58.1736 4.60055 57.3301Q4.14968 56.4866 3.74074 55.622Q3.3318 54.7574 2.96578 53.8737Q2.59976 52.9901 2.27754 52.0895Q1.95532 51.189 1.67768 50.2737Q1.40003 49.3584 1.16763 48.4306Q0.935233 47.5028 0.748638 46.5648Q0.562043 45.6267 0.421702 44.6806Q0.28136 43.7345 0.187611 42.7826Q0.0938622 41.8308 0.0469311 40.8755Q0 39.9202 0 38.9637L0 38.9617Q0 38.0052 0.0469311 37.0499Q0.0938622 36.0946 0.187611 35.1428Q0.28136 34.1909 0.421702 33.2448Q0.562043 32.2987 0.748638 31.3607Q0.935233 30.4226 1.16763 29.4948Q1.40003 28.567 1.67768 27.6517Q1.95532 26.7364 2.27754 25.8359Q2.59976 24.9354 2.96578 24.0517Q3.3318 23.1681 3.74074 22.3034Q4.14968 21.4388 4.60055 20.5953Q5.05142 19.7518 5.54314 18.9314Q6.03485 18.111 6.56623 17.3157Q7.09761 16.5205 7.66737 15.7522Q8.23713 14.984 8.8439 14.2447Q9.45067 13.5053 10.093 12.7966Q10.7353 12.0879 11.4116 11.4116Q12.0879 10.7353 12.7966 10.093Q13.5053 9.45067 14.2447 8.8439Q14.984 8.23713 15.7522 7.66737Q16.5205 7.09761 17.3157 6.56623Q18.111 6.03485 18.9314 5.54314Q19.7518 5.05142 20.5953 4.60055Q21.4388 4.14968 22.3034 3.74074Q23.1681 3.3318 24.0517 2.96578Q24.9354 2.59976 25.8359 2.27754Q26.7364 1.95532 27.6517 1.67768Q28.567 1.40003 29.4948 1.16763Q30.4226 0.935233 31.3607 0.748638Q32.2987 0.562043 33.2448 0.421702Q34.1909 0.28136 35.1428 0.187611Q36.0946 0.0938622 37.0499 0.0469311Q38.0052 0 38.9617 0L38.9637 0Q39.9202 0 40.8755 0.0469311Q41.8308 0.0938622 42.7826 0.187611Q43.7345 0.28136 44.6806 0.421702Q45.6267 0.562043 46.5648 0.748638Q47.5028 0.935233 48.4306 1.16763Q49.3584 1.40003 50.2737 1.67768Q51.189 1.95532 52.0895 2.27754Q52.9901 2.59976 53.8737 2.96578Q54.7574 3.3318 55.622 3.74074Q56.4866 4.14968 57.3301 4.60055Q58.1736 5.05142 58.994 5.54314Q59.8144 6.03485 60.6097 6.56623Q61.4049 7.09761 62.1732 7.66737Q62.9414 8.23713 63.6808 8.8439Q64.4201 9.45067 65.1288 10.093Q65.8375 10.7353 66.5138 11.4116Q67.1901 12.0879 67.8324 12.7966Q68.4747 13.5053 69.0815 14.2447Q69.6883 14.984 70.258 15.7522Q70.8278 16.5205 71.3592 17.3157Q71.8906 18.111 72.3823 18.9314Q72.874 19.7518 73.3249 20.5953Q73.7757 21.4388 74.1847 22.3034Q74.5936 23.1681 74.9596 24.0517Q75.3257 24.9354 75.6479 25.8359Q75.9701 26.7364 76.2477 27.6517Q76.5254 28.567 76.7578 29.4948Q76.9902 30.4226 77.1768 31.3607Q77.3634 32.2987 77.5037 33.2448Q77.6441 34.1909 77.7378 35.1428Q77.8316 36.0946 77.8785 37.0499Q77.9254 38.0052 77.9254 38.9617Z" transform="translate(269.23486 358.86282)" id="Rectangle-2-Copy-8" fill="#FFFFFF" fill-rule="evenodd" stroke="none" />
    <path d="M8.999 0L55.6941 0Q55.915 0 56.1356 0.0108397Q56.3563 0.0216794 56.5761 0.0433326Q56.796 0.0649859 57.0145 0.0974006Q57.233 0.129815 57.4497 0.172913Q57.6663 0.216011 57.8806 0.269689Q58.0949 0.323366 58.3063 0.387494Q58.5177 0.451622 58.7257 0.526045Q58.9337 0.600468 59.1378 0.685008Q59.3419 0.769548 59.5416 0.864Q59.7413 0.958453 59.9362 1.06259Q60.131 1.16673 60.3205 1.2803Q60.51 1.39387 60.6936 1.5166Q60.8773 1.63934 61.0548 1.77094Q61.2322 1.90253 61.403 2.04268Q61.5737 2.18282 61.7374 2.33118Q61.9011 2.47954 62.0573 2.63575Q62.2135 2.79195 62.3619 2.95564Q62.5102 3.11933 62.6504 3.29009Q62.7905 3.46086 62.9221 3.6383Q63.0537 3.81574 63.1765 3.99942Q63.2992 4.1831 63.4128 4.37259Q63.5263 4.56207 63.6305 4.7569Q63.7346 4.95173 63.8291 5.15143Q63.9235 5.35113 64.008 5.55523Q64.0926 5.75933 64.167 5.96733Q64.2414 6.17533 64.3056 6.38673Q64.3697 6.59813 64.4234 6.81242Q64.4771 7.02671 64.5201 7.24338Q64.5632 7.46005 64.5957 7.67857Q64.6281 7.89709 64.6497 8.11694Q64.6714 8.33679 64.6822 8.55744Q64.6931 8.77809 64.6931 8.999L64.6931 55.6941Q64.6931 55.915 64.6822 56.1356Q64.6714 56.3563 64.6497 56.5761Q64.6281 56.796 64.5957 57.0145Q64.5632 57.233 64.5201 57.4497Q64.4771 57.6663 64.4234 57.8806Q64.3697 58.0949 64.3056 58.3063Q64.2414 58.5177 64.167 58.7257Q64.0926 58.9337 64.008 59.1378Q63.9235 59.3419 63.8291 59.5416Q63.7346 59.7413 63.6305 59.9362Q63.5263 60.131 63.4128 60.3205Q63.2992 60.51 63.1765 60.6936Q63.0537 60.8773 62.9221 61.0548Q62.7905 61.2322 62.6504 61.403Q62.5102 61.5737 62.3619 61.7374Q62.2135 61.9011 62.0573 62.0573Q61.9011 62.2135 61.7374 62.3619Q61.5737 62.5102 61.403 62.6504Q61.2322 62.7905 61.0548 62.9221Q60.8773 63.0537 60.6936 63.1765Q60.51 63.2992 60.3205 63.4128Q60.131 63.5263 59.9362 63.6305Q59.7413 63.7346 59.5416 63.8291Q59.3419 63.9235 59.1378 64.008Q58.9337 64.0926 58.7257 64.167Q58.5177 64.2414 58.3063 64.3056Q58.0949 64.3697 57.8806 64.4234Q57.6663 64.4771 57.4497 64.5201Q57.233 64.5632 57.0145 64.5957Q56.796 64.6281 56.5761 64.6497Q56.3563 64.6714 56.1356 64.6822Q55.915 64.6931 55.6941 64.6931L8.999 64.6931Q8.77809 64.6931 8.55744 64.6822Q8.33679 64.6714 8.11694 64.6497Q7.89709 64.6281 7.67857 64.5957Q7.46005 64.5632 7.24338 64.5201Q7.02671 64.4771 6.81242 64.4234Q6.59813 64.3697 6.38673 64.3056Q6.17533 64.2414 5.96733 64.167Q5.75933 64.0926 5.55523 64.008Q5.35113 63.9235 5.15143 63.8291Q4.95173 63.7346 4.7569 63.6305Q4.56207 63.5263 4.37259 63.4128Q4.1831 63.2992 3.99942 63.1765Q3.81574 63.0537 3.6383 62.9221Q3.46086 62.7905 3.29009 62.6504Q3.11933 62.5102 2.95564 62.3619Q2.79195 62.2135 2.63575 62.0573Q2.47954 61.9011 2.33118 61.7374Q2.18282 61.5737 2.04268 61.403Q1.90253 61.2322 1.77094 61.0548Q1.63934 60.8773 1.5166 60.6936Q1.39387 60.51 1.2803 60.3205Q1.16673 60.131 1.06259 59.9362Q0.958453 59.7413 0.864 59.5416Q0.769548 59.3419 0.685008 59.1378Q0.600468 58.9337 0.526045 58.7257Q0.451622 58.5177 0.387494 58.3063Q0.323366 58.0949 0.269689 57.8806Q0.216011 57.6663 0.172913 57.4497Q0.129815 57.233 0.0974006 57.0145Q0.0649859 56.796 0.0433326 56.5761Q0.0216794 56.3563 0.0108397 56.1356Q0 55.915 0 55.6941L0 8.999Q0 8.77809 0.0108397 8.55744Q0.0216794 8.33679 0.0433326 8.11694Q0.0649859 7.89709 0.0974006 7.67857Q0.129815 7.46005 0.172913 7.24338Q0.216011 7.02671 0.269689 6.81242Q0.323366 6.59813 0.387494 6.38673Q0.451622 6.17533 0.526045 5.96733Q0.600468 5.75933 0.685008 5.55523Q0.769548 5.35113 0.864 5.15143Q0.958453 4.95173 1.06259 4.7569Q1.16673 4.56207 1.2803 4.37259Q1.39387 4.1831 1.5166 3.99942Q1.63934 3.81574 1.77094 3.6383Q1.90253 3.46086 2.04268 3.29009Q2.18282 3.11933 2.33118 2.95564Q2.47954 2.79195 2.63575 2.63575Q2.79195 2.47954 2.95564 2.33118Q3.11933 2.18282 3.29009 2.04268Q3.46086 1.90253 3.6383 1.77094Q3.81574 1.63934 3.99942 1.5166Q4.1831 1.39387 4.37259 1.2803Q4.56207 1.16673 4.7569 1.06259Q4.95173 0.958453 5.15143 0.864Q5.35113 0.769548 5.55523 0.685008Q5.75933 0.600468 5.96733 0.526045Q6.17533 0.451622 6.38673 0.387494Q6.59813 0.323366 6.81242 0.269689Q7.02671 0.216011 7.24338 0.172913Q7.46005 0.129815 7.67857 0.0974006Q7.89709 0.0649859 8.11694 0.0433326Q8.33679 0.0216794 8.55744 0.0108397Q8.77809 0 8.999 0Z" transform="translate(183.3999 156.53467)" id="Rectangle-2-Copy-2" fill="#FFFFFF" fill-rule="evenodd" stroke="none" />
    <path d="M8.999 0L55.6941 0Q55.915 0 56.1356 0.0108397Q56.3563 0.0216794 56.5761 0.0433326Q56.796 0.0649859 57.0145 0.0974006Q57.233 0.129815 57.4497 0.172913Q57.6663 0.216011 57.8806 0.269689Q58.0949 0.323366 58.3063 0.387494Q58.5177 0.451622 58.7257 0.526045Q58.9337 0.600468 59.1378 0.685008Q59.3419 0.769548 59.5416 0.864Q59.7413 0.958453 59.9362 1.06259Q60.131 1.16673 60.3205 1.2803Q60.51 1.39387 60.6936 1.5166Q60.8773 1.63934 61.0548 1.77094Q61.2322 1.90253 61.403 2.04268Q61.5737 2.18282 61.7374 2.33118Q61.9011 2.47954 62.0573 2.63575Q62.2135 2.79195 62.3619 2.95564Q62.5102 3.11933 62.6504 3.29009Q62.7905 3.46086 62.9221 3.6383Q63.0537 3.81574 63.1765 3.99942Q63.2992 4.1831 63.4128 4.37259Q63.5263 4.56207 63.6305 4.7569Q63.7346 4.95173 63.8291 5.15143Q63.9235 5.35113 64.008 5.55523Q64.0926 5.75933 64.167 5.96733Q64.2414 6.17533 64.3056 6.38673Q64.3697 6.59813 64.4234 6.81242Q64.4771 7.02671 64.5201 7.24338Q64.5632 7.46005 64.5957 7.67857Q64.6281 7.89709 64.6497 8.11694Q64.6714 8.33679 64.6822 8.55744Q64.6931 8.77809 64.6931 8.999L64.6931 55.6941Q64.6931 55.915 64.6822 56.1356Q64.6714 56.3563 64.6497 56.5761Q64.6281 56.796 64.5957 57.0145Q64.5632 57.233 64.5201 57.4497Q64.4771 57.6663 64.4234 57.8806Q64.3697 58.0949 64.3056 58.3063Q64.2414 58.5177 64.167 58.7257Q64.0926 58.9337 64.008 59.1378Q63.9235 59.3419 63.8291 59.5416Q63.7346 59.7413 63.6305 59.9362Q63.5263 60.131 63.4128 60.3205Q63.2992 60.51 63.1765 60.6936Q63.0537 60.8773 62.9221 61.0548Q62.7905 61.2322 62.6504 61.403Q62.5102 61.5737 62.3619 61.7374Q62.2135 61.9011 62.0573 62.0573Q61.9011 62.2135 61.7374 62.3619Q61.5737 62.5102 61.403 62.6504Q61.2322 62.7905 61.0548 62.9221Q60.8773 63.0537 60.6936 63.1765Q60.51 63.2992 60.3205 63.4128Q60.131 63.5263 59.9362 63.6305Q59.7413 63.7346 59.5416 63.8291Q59.3419 63.9235 59.1378 64.008Q58.9337 64.0926 58.7257 64.167Q58.5177 64.2414 58.3063 64.3056Q58.0949 64.3697 57.8806 64.4234Q57.6663 64.4771 57.4497 64.5201Q57.233 64.5632 57.0145 64.5957Q56.796 64.6281 56.5761 64.6497Q56.3563 64.6714 56.1356 64.6822Q55.915 64.6931 55.6941 64.6931L8.999 64.6931Q8.77809 64.6931 8.55744 64.6822Q8.33679 64.6714 8.11694 64.6497Q7.89709 64.6281 7.67857 64.5957Q7.46005 64.5632 7.24338 64.5201Q7.02671 64.4771 6.81242 64.4234Q6.59813 64.3697 6.38673 64.3056Q6.17533 64.2414 5.96733 64.167Q5.75933 64.0926 5.55523 64.008Q5.35113 63.9235 5.15143 63.8291Q4.95173 63.7346 4.7569 63.6305Q4.56207 63.5263 4.37259 63.4128Q4.1831 63.2992 3.99942 63.1765Q3.81574 63.0537 3.6383 62.9221Q3.46086 62.7905 3.29009 62.6504Q3.11933 62.5102 2.95564 62.3619Q2.79195 62.2135 2.63575 62.0573Q2.47954 61.9011 2.33118 61.7374Q2.18282 61.5737 2.04268 61.403Q1.90253 61.2322 1.77094 61.0548Q1.63934 60.8773 1.5166 60.6936Q1.39387 60.51 1.2803 60.3205Q1.16673 60.131 1.06259 59.9362Q0.958453 59.7413 0.864 59.5416Q0.769548 59.3419 0.685008 59.1378Q0.600468 58.9337 0.526045 58.7257Q0.451622 58.5177 0.387494 58.3063Q0.323366 58.0949 0.269689 57.8806Q0.216011 57.6663 0.172913 57.4497Q0.129815 57.233 0.0974006 57.0145Q0.0649859 56.796 0.0433326 56.5761Q0.0216794 56.3563 0.0108397 56.1356Q0 55.915 0 55.6941L0 8.999Q0 8.77809 0.0108397 8.55744Q0.0216794 8.33679 0.0433326 8.11694Q0.0649859 7.89709 0.0974006 7.67857Q0.129815 7.46005 0.172913 7.24338Q0.216011 7.02671 0.269689 6.81242Q0.323366 6.59813 0.387494 6.38673Q0.451622 6.17533 0.526045 5.96733Q0.600468 5.75933 0.685008 5.55523Q0.769548 5.35113 0.864 5.15143Q0.958453 4.95173 1.06259 4.7569Q1.16673 4.56207 1.2803 4.37259Q1.39387 4.1831 1.5166 3.99942Q1.63934 3.81574 1.77094 3.6383Q1.90253 3.46086 2.04268 3.29009Q2.18282 3.11933 2.33118 2.95564Q2.47954 2.79195 2.63575 2.63575Q2.79195 2.47954 2.95564 2.33118Q3.11933 2.18282 3.29009 2.04268Q3.46086 1.90253 3.6383 1.77094Q3.81574 1.63934 3.99942 1.5166Q4.1831 1.39387 4.37259 1.2803Q4.56207 1.16673 4.7569 1.06259Q4.95173 0.958453 5.15143 0.864Q5.35113 0.769548 5.55523 0.685008Q5.75933 0.600468 5.96733 0.526045Q6.17533 0.451622 6.38673 0.387494Q6.59813 0.323366 6.81242 0.269689Q7.02671 0.216011 7.24338 0.172913Q7.46005 0.129815 7.67857 0.0974006Q7.89709 0.0649859 8.11694 0.0433326Q8.33679 0.0216794 8.55744 0.0108397Q8.77809 0 8.999 0Z" transform="translate(0.013793945 267.22772)" id="Rectangle-2-Copy-3" fill="#FFFFFF" fill-rule="evenodd" stroke="none" />
    <path d="M78.2951 39.1466L78.2951 39.1486Q78.2951 40.1096 78.248 41.0694Q78.2008 42.0292 78.1066 42.9856Q78.0125 43.942 77.8714 44.8926Q77.7304 45.8432 77.5429 46.7857Q77.3555 47.7282 77.122 48.6604Q76.8885 49.5926 76.6095 50.5122Q76.3305 51.4318 76.0068 52.3367Q75.683 53.2415 75.3153 54.1293Q74.9475 55.0172 74.5367 55.8859Q74.1258 56.7546 73.6728 57.6021Q73.2198 58.4497 72.7257 59.2739Q72.2317 60.0982 71.6978 60.8972Q71.1638 61.6963 70.5914 62.4682Q70.0189 63.24 69.4093 63.9829Q68.7996 64.7257 68.1543 65.4378Q67.5089 66.1498 66.8294 66.8294Q66.1498 67.5089 65.4378 68.1543Q64.7257 68.7996 63.9829 69.4093Q63.24 70.0189 62.4681 70.5914Q61.6963 71.1638 60.8972 71.6978Q60.0982 72.2317 59.2739 72.7257Q58.4497 73.2198 57.6021 73.6728Q56.7546 74.1258 55.8859 74.5367Q55.0172 74.9475 54.1293 75.3153Q53.2415 75.683 52.3367 76.0068Q51.4318 76.3305 50.5122 76.6095Q49.5926 76.8885 48.6604 77.122Q47.7282 77.3555 46.7857 77.5429Q45.8432 77.7304 44.8926 77.8714Q43.942 78.0125 42.9856 78.1066Q42.0292 78.2008 41.0694 78.248Q40.1096 78.2951 39.1486 78.2951L39.1466 78.2951Q38.1856 78.2951 37.2257 78.248Q36.2659 78.2008 35.3095 78.1066Q34.3532 78.0125 33.4026 77.8714Q32.452 77.7304 31.5095 77.5429Q30.5669 77.3555 29.6347 77.122Q28.7025 76.8885 27.7829 76.6095Q26.8633 76.3305 25.9585 76.0068Q25.0537 75.683 24.1658 75.3153Q23.278 74.9475 22.4093 74.5367Q21.5405 74.1258 20.693 73.6728Q19.8455 73.2198 19.0212 72.7257Q18.1969 72.2317 17.3979 71.6978Q16.5989 71.1638 15.827 70.5914Q15.0551 70.0189 14.3123 69.4093Q13.5694 68.7996 12.8573 68.1543Q12.1453 67.5089 11.4658 66.8294Q10.7862 66.1498 10.1409 65.4378Q9.49551 64.7257 8.88586 63.9829Q8.27621 63.24 7.70375 62.4681Q7.13129 61.6963 6.59739 60.8972Q6.06349 60.0982 5.56944 59.2739Q5.07539 58.4497 4.62238 57.6021Q4.16937 56.7546 3.75849 55.8859Q3.34761 55.0172 2.97986 54.1293Q2.6121 53.2415 2.28835 52.3367Q1.9646 51.4318 1.68564 50.5122Q1.40668 49.5926 1.17317 48.6604Q0.939671 47.7282 0.75219 46.7857Q0.56471 45.8432 0.423702 44.8926Q0.282695 43.942 0.188501 42.9856Q0.0943075 42.0292 0.0471538 41.0694Q0 40.1096 0 39.1486L0 39.1466Q0 38.1856 0.0471538 37.2257Q0.0943075 36.2659 0.188501 35.3095Q0.282695 34.3532 0.423702 33.4026Q0.56471 32.452 0.75219 31.5095Q0.939671 30.5669 1.17317 29.6347Q1.40668 28.7025 1.68564 27.7829Q1.9646 26.8633 2.28835 25.9585Q2.6121 25.0537 2.97986 24.1658Q3.34761 23.278 3.75849 22.4093Q4.16937 21.5405 4.62238 20.693Q5.07539 19.8455 5.56944 19.0212Q6.06349 18.1969 6.59739 17.3979Q7.13129 16.5989 7.70375 15.827Q8.27621 15.0551 8.88586 14.3123Q9.49551 13.5694 10.1409 12.8573Q10.7862 12.1453 11.4658 11.4658Q12.1453 10.7862 12.8573 10.1409Q13.5694 9.49551 14.3122 8.88586Q15.0551 8.27621 15.827 7.70375Q16.5989 7.13129 17.3979 6.59739Q18.1969 6.06349 19.0212 5.56944Q19.8455 5.07539 20.693 4.62238Q21.5405 4.16937 22.4093 3.75849Q23.278 3.34761 24.1658 2.97986Q25.0537 2.6121 25.9585 2.28835Q26.8633 1.9646 27.7829 1.68564Q28.7025 1.40668 29.6347 1.17317Q30.5669 0.939671 31.5095 0.75219Q32.452 0.56471 33.4026 0.423702Q34.3532 0.282695 35.3095 0.188501Q36.2659 0.0943075 37.2257 0.0471538Q38.1856 0 39.1466 0L39.1486 0Q40.1096 0 41.0694 0.0471538Q42.0292 0.0943075 42.9856 0.188501Q43.942 0.282695 44.8926 0.423702Q45.8432 0.56471 46.7857 0.75219Q47.7282 0.939671 48.6604 1.17317Q49.5926 1.40668 50.5122 1.68564Q51.4318 1.9646 52.3367 2.28835Q53.2415 2.6121 54.1293 2.97986Q55.0172 3.34761 55.8859 3.75849Q56.7546 4.16937 57.6021 4.62238Q58.4497 5.07539 59.2739 5.56944Q60.0982 6.06349 60.8972 6.59739Q61.6963 7.13129 62.4682 7.70375Q63.24 8.27621 63.9829 8.88586Q64.7257 9.49551 65.4378 10.1409Q66.1498 10.7862 66.8294 11.4658Q67.5089 12.1453 68.1543 12.8573Q68.7996 13.5694 69.4093 14.3122Q70.0189 15.0551 70.5914 15.827Q71.1638 16.5989 71.6978 17.3979Q72.2317 18.1969 72.7257 19.0212Q73.2198 19.8455 73.6728 20.693Q74.1258 21.5405 74.5367 22.4093Q74.9475 23.278 75.3153 24.1658Q75.683 25.0537 76.0068 25.9585Q76.3305 26.8633 76.6095 27.7829Q76.8885 28.7025 77.122 29.6347Q77.3555 30.5669 77.5429 31.5095Q77.7304 32.452 77.8714 33.4026Q78.0125 34.3532 78.1066 35.3095Q78.2008 36.2659 78.248 37.2257Q78.2951 38.1856 78.2951 39.1466Z" transform="translate(269.89307 257.6814)" id="Rectangle-2-Copy-9" fill="#FFFFFF" fill-rule="evenodd" stroke="none" />
    <path d="M78.3 39.149L78.3 39.151Q78.3 40.1121 78.2528 41.072Q78.2057 42.0319 78.1115 42.9883Q78.0173 43.9447 77.8763 44.8954Q77.7353 45.846 77.5478 46.7886Q77.3603 47.7312 77.1268 48.6634Q76.8932 49.5957 76.6143 50.5154Q76.3353 51.435 76.0115 52.3399Q75.6877 53.2448 75.32 54.1327Q74.9522 55.0206 74.5413 55.8894Q74.1304 56.7581 73.6773 57.6057Q73.2243 58.4533 72.7302 59.2776Q72.2361 60.1019 71.7022 60.901Q71.1683 61.7001 70.5958 62.472Q70.0233 63.244 69.4136 63.9869Q68.8039 64.7298 68.1585 65.4419Q67.5131 66.1539 66.8335 66.8335Q66.1539 67.5131 65.4419 68.1585Q64.7298 68.8039 63.9869 69.4136Q63.244 70.0233 62.472 70.5958Q61.7001 71.1683 60.901 71.7022Q60.1019 72.2361 59.2776 72.7302Q58.4533 73.2243 57.6057 73.6773Q56.7581 74.1304 55.8894 74.5413Q55.0206 74.9522 54.1327 75.32Q53.2448 75.6877 52.3399 76.0115Q51.435 76.3353 50.5154 76.6143Q49.5957 76.8932 48.6634 77.1268Q47.7312 77.3603 46.7886 77.5478Q45.846 77.7353 44.8954 77.8763Q43.9447 78.0173 42.9883 78.1115Q42.0319 78.2057 41.072 78.2528Q40.1121 78.3 39.151 78.3L39.149 78.3Q38.1879 78.3 37.2281 78.2528Q36.2682 78.2057 35.3117 78.1115Q34.3553 78.0173 33.4046 77.8763Q32.454 77.7353 31.5114 77.5478Q30.5688 77.3603 29.6366 77.1268Q28.7043 76.8932 27.7846 76.6143Q26.865 76.3353 25.9601 76.0115Q25.0552 75.6877 24.1673 75.32Q23.2794 74.9522 22.4106 74.5413Q21.5419 74.1304 20.6943 73.6773Q19.8467 73.2243 19.0224 72.7302Q18.1981 72.2361 17.399 71.7022Q16.5999 71.1683 15.828 70.5958Q15.056 70.0233 14.3131 69.4136Q13.5702 68.8039 12.8581 68.1585Q12.146 67.5131 11.4665 66.8335Q10.7869 66.1539 10.1415 65.4419Q9.4961 64.7298 8.88641 63.9869Q8.27673 63.244 7.70423 62.472Q7.13173 61.7001 6.5978 60.901Q6.06386 60.1019 5.56978 59.2776Q5.0757 58.4533 4.62266 57.6057Q4.16963 56.7581 3.75872 55.8894Q3.34782 55.0206 2.98004 54.1327Q2.61226 53.2448 2.28849 52.3399Q1.96472 51.435 1.68574 50.5154Q1.40676 49.5957 1.17325 48.6634Q0.939729 47.7312 0.752237 46.7886Q0.564745 45.846 0.423729 44.8954Q0.282713 43.9447 0.188513 42.9883Q0.0943134 42.0319 0.0471567 41.072Q0 40.1121 0 39.151L0 39.149Q0 38.1879 0.0471567 37.2281Q0.0943134 36.2682 0.188513 35.3117Q0.282713 34.3553 0.423729 33.4046Q0.564745 32.454 0.752237 31.5114Q0.939729 30.5688 1.17325 29.6366Q1.40676 28.7043 1.68574 27.7846Q1.96472 26.865 2.28849 25.9601Q2.61226 25.0552 2.98004 24.1673Q3.34782 23.2794 3.75872 22.4106Q4.16963 21.5419 4.62266 20.6943Q5.0757 19.8467 5.56978 19.0224Q6.06386 18.1981 6.5978 17.399Q7.13173 16.5999 7.70423 15.828Q8.27673 15.056 8.88641 14.3131Q9.4961 13.5702 10.1415 12.8581Q10.7869 12.146 11.4665 11.4665Q12.146 10.7869 12.8581 10.1415Q13.5702 9.4961 14.3131 8.88641Q15.056 8.27673 15.828 7.70423Q16.5999 7.13173 17.399 6.5978Q18.1981 6.06386 19.0224 5.56978Q19.8467 5.0757 20.6943 4.62266Q21.5419 4.16963 22.4106 3.75872Q23.2794 3.34782 24.1673 2.98004Q25.0552 2.61226 25.9601 2.28849Q26.865 1.96472 27.7846 1.68574Q28.7043 1.40676 29.6366 1.17325Q30.5688 0.939729 31.5114 0.752237Q32.454 0.564745 33.4046 0.423729Q34.3553 0.282713 35.3117 0.188513Q36.2682 0.0943134 37.2281 0.0471567Q38.1879 0 39.149 0L39.151 0Q40.1121 0 41.072 0.0471567Q42.0319 0.0943134 42.9883 0.188513Q43.9447 0.282713 44.8954 0.423729Q45.846 0.564745 46.7886 0.752237Q47.7312 0.939729 48.6634 1.17325Q49.5957 1.40676 50.5154 1.68574Q51.435 1.96472 52.3399 2.28849Q53.2448 2.61226 54.1327 2.98004Q55.0206 3.34782 55.8894 3.75872Q56.7581 4.16963 57.6057 4.62266Q58.4533 5.0757 59.2776 5.56978Q60.1019 6.06386 60.901 6.5978Q61.7001 7.13173 62.472 7.70423Q63.244 8.27673 63.9869 8.88641Q64.7298 9.4961 65.4419 10.1415Q66.1539 10.7869 66.8335 11.4665Q67.5131 12.146 68.1585 12.8581Q68.8039 13.5702 69.4136 14.3131Q70.0233 15.056 70.5958 15.828Q71.1683 16.5999 71.7022 17.399Q72.2361 18.1981 72.7302 19.0224Q73.2243 19.8467 73.6773 20.6943Q74.1304 21.5419 74.5413 22.4106Q74.9522 23.2794 75.32 24.1673Q75.6877 25.0552 76.0115 25.9601Q76.3353 26.865 76.6143 27.7846Q76.8932 28.7043 77.1268 29.6366Q77.3603 30.5688 77.5478 31.5114Q77.7353 32.454 77.8763 33.4046Q78.0173 34.3553 78.1115 35.3117Q78.2057 36.2682 78.2528 37.2281Q78.3 38.1879 78.3 39.149Z" transform="translate(268.86517 156.5)" id="Rectangle-2-Copy-13" fill="#FFFFFF" fill-rule="evenodd" stroke="none" />
    <path d="M8.999 0L55.6941 0Q55.915 0 56.1356 0.0108397Q56.3563 0.0216794 56.5761 0.0433326Q56.796 0.0649859 57.0145 0.0974006Q57.233 0.129815 57.4497 0.172913Q57.6663 0.216011 57.8806 0.269689Q58.0949 0.323366 58.3063 0.387494Q58.5177 0.451622 58.7257 0.526045Q58.9337 0.600468 59.1378 0.685008Q59.3419 0.769548 59.5416 0.864Q59.7413 0.958453 59.9362 1.06259Q60.131 1.16673 60.3205 1.2803Q60.51 1.39387 60.6936 1.5166Q60.8773 1.63934 61.0548 1.77094Q61.2322 1.90253 61.403 2.04268Q61.5737 2.18282 61.7374 2.33118Q61.9011 2.47954 62.0573 2.63575Q62.2135 2.79195 62.3619 2.95564Q62.5102 3.11933 62.6504 3.29009Q62.7905 3.46086 62.9221 3.6383Q63.0537 3.81574 63.1765 3.99942Q63.2992 4.1831 63.4128 4.37259Q63.5263 4.56207 63.6305 4.7569Q63.7346 4.95173 63.8291 5.15143Q63.9235 5.35113 64.008 5.55523Q64.0926 5.75933 64.167 5.96733Q64.2414 6.17533 64.3056 6.38673Q64.3697 6.59813 64.4234 6.81242Q64.4771 7.02671 64.5201 7.24338Q64.5632 7.46005 64.5957 7.67857Q64.6281 7.89709 64.6497 8.11694Q64.6714 8.33679 64.6822 8.55744Q64.6931 8.77809 64.6931 8.999L64.6931 55.6941Q64.6931 55.915 64.6822 56.1356Q64.6714 56.3563 64.6497 56.5761Q64.6281 56.796 64.5957 57.0145Q64.5632 57.233 64.5201 57.4497Q64.4771 57.6663 64.4234 57.8806Q64.3697 58.0949 64.3056 58.3063Q64.2414 58.5177 64.167 58.7257Q64.0926 58.9337 64.008 59.1378Q63.9235 59.3419 63.8291 59.5416Q63.7346 59.7413 63.6305 59.9362Q63.5263 60.131 63.4128 60.3205Q63.2992 60.51 63.1765 60.6936Q63.0537 60.8773 62.9221 61.0548Q62.7905 61.2322 62.6504 61.403Q62.5102 61.5737 62.3619 61.7374Q62.2135 61.9011 62.0573 62.0573Q61.9011 62.2135 61.7374 62.3619Q61.5737 62.5102 61.403 62.6504Q61.2322 62.7905 61.0548 62.9221Q60.8773 63.0537 60.6936 63.1765Q60.51 63.2992 60.3205 63.4128Q60.131 63.5263 59.9362 63.6305Q59.7413 63.7346 59.5416 63.8291Q59.3419 63.9235 59.1378 64.008Q58.9337 64.0926 58.7257 64.167Q58.5177 64.2414 58.3063 64.3056Q58.0949 64.3697 57.8806 64.4234Q57.6663 64.4771 57.4497 64.5201Q57.233 64.5632 57.0145 64.5957Q56.796 64.6281 56.5761 64.6497Q56.3563 64.6714 56.1356 64.6822Q55.915 64.6931 55.6941 64.6931L8.999 64.6931Q8.77809 64.6931 8.55744 64.6822Q8.33679 64.6714 8.11694 64.6497Q7.89709 64.6281 7.67857 64.5957Q7.46005 64.5632 7.24338 64.5201Q7.02671 64.4771 6.81242 64.4234Q6.59813 64.3697 6.38673 64.3056Q6.17533 64.2414 5.96733 64.167Q5.75933 64.0926 5.55523 64.008Q5.35113 63.9235 5.15143 63.8291Q4.95173 63.7346 4.7569 63.6305Q4.56207 63.5263 4.37259 63.4128Q4.1831 63.2992 3.99942 63.1765Q3.81574 63.0537 3.6383 62.9221Q3.46086 62.7905 3.29009 62.6504Q3.11933 62.5102 2.95564 62.3619Q2.79195 62.2135 2.63575 62.0573Q2.47954 61.9011 2.33118 61.7374Q2.18282 61.5737 2.04268 61.403Q1.90253 61.2322 1.77094 61.0548Q1.63934 60.8773 1.5166 60.6936Q1.39387 60.51 1.2803 60.3205Q1.16673 60.131 1.06259 59.9362Q0.958453 59.7413 0.864 59.5416Q0.769548 59.3419 0.685008 59.1378Q0.600468 58.9337 0.526045 58.7257Q0.451622 58.5177 0.387494 58.3063Q0.323366 58.0949 0.269689 57.8806Q0.216011 57.6663 0.172913 57.4497Q0.129815 57.233 0.0974006 57.0145Q0.0649859 56.796 0.0433326 56.5761Q0.0216794 56.3563 0.0108397 56.1356Q0 55.915 0 55.6941L0 8.999Q0 8.77809 0.0108397 8.55744Q0.0216794 8.33679 0.0433326 8.11694Q0.0649859 7.89709 0.0974006 7.67857Q0.129815 7.46005 0.172913 7.24338Q0.216011 7.02671 0.269689 6.81242Q0.323366 6.59813 0.387494 6.38673Q0.451622 6.17533 0.526045 5.96733Q0.600468 5.75933 0.685008 5.55523Q0.769548 5.35113 0.864 5.15143Q0.958453 4.95173 1.06259 4.7569Q1.16673 4.56207 1.2803 4.37259Q1.39387 4.1831 1.5166 3.99942Q1.63934 3.81574 1.77094 3.6383Q1.90253 3.46086 2.04268 3.29009Q2.18282 3.11933 2.33118 2.95564Q2.47954 2.79195 2.63575 2.63575Q2.79195 2.47954 2.95564 2.33118Q3.11933 2.18282 3.29009 2.04268Q3.46086 1.90253 3.6383 1.77094Q3.81574 1.63934 3.99942 1.5166Q4.1831 1.39387 4.37259 1.2803Q4.56207 1.16673 4.7569 1.06259Q4.95173 0.958453 5.15143 0.864Q5.35113 0.769548 5.55523 0.685008Q5.75933 0.600468 5.96733 0.526045Q6.17533 0.451622 6.38673 0.387494Q6.59813 0.323366 6.81242 0.269689Q7.02671 0.216011 7.24338 0.172913Q7.46005 0.129815 7.67857 0.0974006Q7.89709 0.0649859 8.11694 0.0433326Q8.33679 0.0216794 8.55744 0.0108397Q8.77809 0 8.999 0Z" transform="translate(183.3999 377.92078)" id="Rectangle-2-Copy-14" fill="#FFFFFF" fill-rule="evenodd" stroke="none" />
    <path d="M8.999 0L55.6941 0Q55.915 0 56.1356 0.0108397Q56.3563 0.0216794 56.5761 0.0433326Q56.796 0.0649859 57.0145 0.0974006Q57.233 0.129815 57.4497 0.172913Q57.6663 0.216011 57.8806 0.269689Q58.0949 0.323366 58.3063 0.387494Q58.5177 0.451622 58.7257 0.526045Q58.9337 0.600468 59.1378 0.685008Q59.3419 0.769548 59.5416 0.864Q59.7413 0.958453 59.9362 1.06259Q60.131 1.16673 60.3205 1.2803Q60.51 1.39387 60.6936 1.5166Q60.8773 1.63934 61.0548 1.77094Q61.2322 1.90253 61.403 2.04268Q61.5737 2.18282 61.7374 2.33118Q61.9011 2.47954 62.0573 2.63575Q62.2135 2.79195 62.3619 2.95564Q62.5102 3.11933 62.6504 3.29009Q62.7905 3.46086 62.9221 3.6383Q63.0537 3.81574 63.1765 3.99942Q63.2992 4.1831 63.4128 4.37259Q63.5263 4.56207 63.6305 4.7569Q63.7346 4.95173 63.8291 5.15143Q63.9235 5.35113 64.008 5.55523Q64.0926 5.75933 64.167 5.96733Q64.2414 6.17533 64.3056 6.38673Q64.3697 6.59813 64.4234 6.81242Q64.4771 7.02671 64.5201 7.24338Q64.5632 7.46005 64.5957 7.67857Q64.6281 7.89709 64.6497 8.11694Q64.6714 8.33679 64.6822 8.55744Q64.6931 8.77809 64.6931 8.999L64.6931 55.6941Q64.6931 55.915 64.6822 56.1356Q64.6714 56.3563 64.6497 56.5761Q64.6281 56.796 64.5957 57.0145Q64.5632 57.233 64.5201 57.4497Q64.4771 57.6663 64.4234 57.8806Q64.3697 58.0949 64.3056 58.3063Q64.2414 58.5177 64.167 58.7257Q64.0926 58.9337 64.008 59.1378Q63.9235 59.3419 63.8291 59.5416Q63.7346 59.7413 63.6305 59.9362Q63.5263 60.131 63.4128 60.3205Q63.2992 60.51 63.1765 60.6936Q63.0537 60.8773 62.9221 61.0548Q62.7905 61.2322 62.6504 61.403Q62.5102 61.5737 62.3619 61.7374Q62.2135 61.9011 62.0573 62.0573Q61.9011 62.2135 61.7374 62.3619Q61.5737 62.5102 61.403 62.6504Q61.2322 62.7905 61.0548 62.9221Q60.8773 63.0537 60.6936 63.1765Q60.51 63.2992 60.3205 63.4128Q60.131 63.5263 59.9362 63.6305Q59.7413 63.7346 59.5416 63.8291Q59.3419 63.9235 59.1378 64.008Q58.9337 64.0926 58.7257 64.167Q58.5177 64.2414 58.3063 64.3056Q58.0949 64.3697 57.8806 64.4234Q57.6663 64.4771 57.4497 64.5201Q57.233 64.5632 57.0145 64.5957Q56.796 64.6281 56.5761 64.6497Q56.3563 64.6714 56.1356 64.6822Q55.915 64.6931 55.6941 64.6931L8.999 64.6931Q8.77809 64.6931 8.55744 64.6822Q8.33679 64.6714 8.11694 64.6497Q7.89709 64.6281 7.67857 64.5957Q7.46005 64.5632 7.24338 64.5201Q7.02671 64.4771 6.81242 64.4234Q6.59813 64.3697 6.38673 64.3056Q6.17533 64.2414 5.96733 64.167Q5.75933 64.0926 5.55523 64.008Q5.35113 63.9235 5.15143 63.8291Q4.95173 63.7346 4.7569 63.6305Q4.56207 63.5263 4.37259 63.4128Q4.1831 63.2992 3.99942 63.1765Q3.81574 63.0537 3.6383 62.9221Q3.46086 62.7905 3.29009 62.6504Q3.11933 62.5102 2.95564 62.3619Q2.79195 62.2135 2.63575 62.0573Q2.47954 61.9011 2.33118 61.7374Q2.18282 61.5737 2.04268 61.403Q1.90253 61.2322 1.77094 61.0548Q1.63934 60.8773 1.5166 60.6936Q1.39387 60.51 1.2803 60.3205Q1.16673 60.131 1.06259 59.9362Q0.958453 59.7413 0.864 59.5416Q0.769548 59.3419 0.685008 59.1378Q0.600468 58.9337 0.526045 58.7257Q0.451622 58.5177 0.387494 58.3063Q0.323366 58.0949 0.269689 57.8806Q0.216011 57.6663 0.172913 57.4497Q0.129815 57.233 0.0974006 57.0145Q0.0649859 56.796 0.0433326 56.5761Q0.0216794 56.3563 0.0108397 56.1356Q0 55.915 0 55.6941L0 8.999Q0 8.77809 0.0108397 8.55744Q0.0216794 8.33679 0.0433326 8.11694Q0.0649859 7.89709 0.0974006 7.67857Q0.129815 7.46005 0.172913 7.24338Q0.216011 7.02671 0.269689 6.81242Q0.323366 6.59813 0.387494 6.38673Q0.451622 6.17533 0.526045 5.96733Q0.600468 5.75933 0.685008 5.55523Q0.769548 5.35113 0.864 5.15143Q0.958453 4.95173 1.06259 4.7569Q1.16673 4.56207 1.2803 4.37259Q1.39387 4.1831 1.5166 3.99942Q1.63934 3.81574 1.77094 3.6383Q1.90253 3.46086 2.04268 3.29009Q2.18282 3.11933 2.33118 2.95564Q2.47954 2.79195 2.63575 2.63575Q2.79195 2.47954 2.95564 2.33118Q3.11933 2.18282 3.29009 2.04268Q3.46086 1.90253 3.6383 1.77094Q3.81574 1.63934 3.99942 1.5166Q4.1831 1.39387 4.37259 1.2803Q4.56207 1.16673 4.7569 1.06259Q4.95173 0.958453 5.15143 0.864Q5.35113 0.769548 5.55523 0.685008Q5.75933 0.600468 5.96733 0.526045Q6.17533 0.451622 6.38673 0.387494Q6.59813 0.323366 6.81242 0.269689Q7.02671 0.216011 7.24338 0.172913Q7.46005 0.129815 7.67857 0.0974006Q7.89709 0.0649859 8.11694 0.0433326Q8.33679 0.0216794 8.55744 0.0108397Q8.77809 0 8.999 0Z" transform="translate(91.70685 377.92078)" id="Rectangle-2-Copy-15" fill="#FFFFFF" fill-rule="evenodd" stroke="none" />
    <path d="M8.999 0L55.6941 0Q55.915 0 56.1356 0.0108397Q56.3563 0.0216794 56.5761 0.0433326Q56.796 0.0649859 57.0145 0.0974006Q57.233 0.129815 57.4497 0.172913Q57.6663 0.216011 57.8806 0.269689Q58.0949 0.323366 58.3063 0.387494Q58.5177 0.451622 58.7257 0.526045Q58.9337 0.600468 59.1378 0.685008Q59.3419 0.769548 59.5416 0.864Q59.7413 0.958453 59.9362 1.06259Q60.131 1.16673 60.3205 1.2803Q60.51 1.39387 60.6936 1.5166Q60.8773 1.63934 61.0548 1.77094Q61.2322 1.90253 61.403 2.04268Q61.5737 2.18282 61.7374 2.33118Q61.9011 2.47954 62.0573 2.63575Q62.2135 2.79195 62.3619 2.95564Q62.5102 3.11933 62.6504 3.29009Q62.7905 3.46086 62.9221 3.6383Q63.0537 3.81574 63.1765 3.99942Q63.2992 4.1831 63.4128 4.37259Q63.5263 4.56207 63.6305 4.7569Q63.7346 4.95173 63.8291 5.15143Q63.9235 5.35113 64.008 5.55523Q64.0926 5.75933 64.167 5.96733Q64.2414 6.17533 64.3056 6.38673Q64.3697 6.59813 64.4234 6.81242Q64.4771 7.02671 64.5201 7.24338Q64.5632 7.46005 64.5957 7.67857Q64.6281 7.89709 64.6497 8.11694Q64.6714 8.33679 64.6822 8.55744Q64.6931 8.77809 64.6931 8.999L64.6931 55.6941Q64.6931 55.915 64.6822 56.1356Q64.6714 56.3563 64.6497 56.5761Q64.6281 56.796 64.5957 57.0145Q64.5632 57.233 64.5201 57.4497Q64.4771 57.6663 64.4234 57.8806Q64.3697 58.0949 64.3056 58.3063Q64.2414 58.5177 64.167 58.7257Q64.0926 58.9337 64.008 59.1378Q63.9235 59.3419 63.8291 59.5416Q63.7346 59.7413 63.6305 59.9362Q63.5263 60.131 63.4128 60.3205Q63.2992 60.51 63.1765 60.6936Q63.0537 60.8773 62.9221 61.0548Q62.7905 61.2322 62.6504 61.403Q62.5102 61.5737 62.3619 61.7374Q62.2135 61.9011 62.0573 62.0573Q61.9011 62.2135 61.7374 62.3619Q61.5737 62.5102 61.403 62.6504Q61.2322 62.7905 61.0548 62.9221Q60.8773 63.0537 60.6936 63.1765Q60.51 63.2992 60.3205 63.4128Q60.131 63.5263 59.9362 63.6305Q59.7413 63.7346 59.5416 63.8291Q59.3419 63.9235 59.1378 64.008Q58.9337 64.0926 58.7257 64.167Q58.5177 64.2414 58.3063 64.3056Q58.0949 64.3697 57.8806 64.4234Q57.6663 64.4771 57.4497 64.5201Q57.233 64.5632 57.0145 64.5957Q56.796 64.6281 56.5761 64.6497Q56.3563 64.6714 56.1356 64.6822Q55.915 64.6931 55.6941 64.6931L8.999 64.6931Q8.77809 64.6931 8.55744 64.6822Q8.33679 64.6714 8.11694 64.6497Q7.89709 64.6281 7.67857 64.5957Q7.46005 64.5632 7.24338 64.5201Q7.02671 64.4771 6.81242 64.4234Q6.59813 64.3697 6.38673 64.3056Q6.17533 64.2414 5.96733 64.167Q5.75933 64.0926 5.55523 64.008Q5.35113 63.9235 5.15143 63.8291Q4.95173 63.7346 4.7569 63.6305Q4.56207 63.5263 4.37259 63.4128Q4.1831 63.2992 3.99942 63.1765Q3.81574 63.0537 3.6383 62.9221Q3.46086 62.7905 3.29009 62.6504Q3.11933 62.5102 2.95564 62.3619Q2.79195 62.2135 2.63575 62.0573Q2.47954 61.9011 2.33118 61.7374Q2.18282 61.5737 2.04268 61.403Q1.90253 61.2322 1.77094 61.0548Q1.63934 60.8773 1.5166 60.6936Q1.39387 60.51 1.2803 60.3205Q1.16673 60.131 1.06259 59.9362Q0.958453 59.7413 0.864 59.5416Q0.769548 59.3419 0.685008 59.1378Q0.600468 58.9337 0.526045 58.7257Q0.451622 58.5177 0.387494 58.3063Q0.323366 58.0949 0.269689 57.8806Q0.216011 57.6663 0.172913 57.4497Q0.129815 57.233 0.0974006 57.0145Q0.0649859 56.796 0.0433326 56.5761Q0.0216794 56.3563 0.0108397 56.1356Q0 55.915 0 55.6941L0 8.999Q0 8.77809 0.0108397 8.55744Q0.0216794 8.33679 0.0433326 8.11694Q0.0649859 7.89709 0.0974006 7.67857Q0.129815 7.46005 0.172913 7.24338Q0.216011 7.02671 0.269689 6.81242Q0.323366 6.59813 0.387494 6.38673Q0.451622 6.17533 0.526045 5.96733Q0.600468 5.75933 0.685008 5.55523Q0.769548 5.35113 0.864 5.15143Q0.958453 4.95173 1.06259 4.7569Q1.16673 4.56207 1.2803 4.37259Q1.39387 4.1831 1.5166 3.99942Q1.63934 3.81574 1.77094 3.6383Q1.90253 3.46086 2.04268 3.29009Q2.18282 3.11933 2.33118 2.95564Q2.47954 2.79195 2.63575 2.63575Q2.79195 2.47954 2.95564 2.33118Q3.11933 2.18282 3.29009 2.04268Q3.46086 1.90253 3.6383 1.77094Q3.81574 1.63934 3.99942 1.5166Q4.1831 1.39387 4.37259 1.2803Q4.56207 1.16673 4.7569 1.06259Q4.95173 0.958453 5.15143 0.864Q5.35113 0.769548 5.55523 0.685008Q5.75933 0.600468 5.96733 0.526045Q6.17533 0.451622 6.38673 0.387494Q6.59813 0.323366 6.81242 0.269689Q7.02671 0.216011 7.24338 0.172913Q7.46005 0.129815 7.67857 0.0974006Q7.89709 0.0649859 8.11694 0.0433326Q8.33679 0.0216794 8.55744 0.0108397Q8.77809 0 8.999 0Z" transform="translate(0.013793945 377.92078)" id="Rectangle-2-Copy-16" fill="#FFFFFF" fill-rule="evenodd" stroke="none" />
  </g>
  <path d="M20.999 0L510.001 0Q510.517 0 511.031 0.0252942Q511.546 0.0505884 512.059 0.101116Q512.572 0.151643 513.082 0.227282Q513.592 0.302921 514.098 0.40349Q514.603 0.504058 515.103 0.629314Q515.603 0.754569 516.097 0.90421Q516.59 1.05385 517.075 1.22752Q517.561 1.40118 518.037 1.59845Q518.513 1.79573 518.979 2.01613Q519.445 2.23653 519.9 2.47954Q520.354 2.72254 520.797 2.98756Q521.239 3.25257 521.667 3.53897Q522.096 3.82536 522.51 4.13244Q522.924 4.43953 523.323 4.76655Q523.721 5.09358 524.103 5.43977Q524.485 5.78595 524.849 6.15046Q525.214 6.51498 525.56 6.89693Q525.906 7.27889 526.233 7.67738Q526.56 8.07586 526.868 8.48991Q527.175 8.90396 527.461 9.33258Q527.747 9.7612 528.012 10.2034Q528.277 10.6455 528.52 11.1001Q528.763 11.5548 528.984 12.0208Q529.204 12.4868 529.401 12.963Q529.599 13.4393 529.772 13.9246Q529.946 14.41 530.096 14.9033Q530.245 15.3966 530.371 15.8967Q530.496 16.3967 530.596 16.9023Q530.697 17.4079 530.773 17.9178Q530.848 18.4277 530.899 18.9407Q530.949 19.4538 530.975 19.9686Q531 20.4835 531 20.999L531 660.001Q531 660.516 530.975 661.031Q530.949 661.546 530.899 662.059Q530.848 662.572 530.773 663.082Q530.697 663.592 530.596 664.098Q530.496 664.603 530.371 665.103Q530.245 665.603 530.096 666.097Q529.946 666.59 529.772 667.075Q529.599 667.561 529.401 668.037Q529.204 668.513 528.984 668.979Q528.763 669.445 528.52 669.9Q528.277 670.354 528.012 670.797Q527.747 671.239 527.461 671.667Q527.175 672.096 526.868 672.51Q526.56 672.924 526.233 673.323Q525.906 673.721 525.56 674.103Q525.214 674.485 524.849 674.849Q524.485 675.214 524.103 675.56Q523.721 675.906 523.323 676.233Q522.924 676.56 522.51 676.867Q522.096 677.175 521.667 677.461Q521.239 677.747 520.797 678.012Q520.354 678.277 519.9 678.52Q519.445 678.763 518.979 678.984Q518.513 679.204 518.037 679.401Q517.561 679.599 517.075 679.772Q516.59 679.946 516.097 680.096Q515.603 680.245 515.103 680.371Q514.603 680.496 514.098 680.596Q513.592 680.697 513.082 680.773Q512.572 680.848 512.059 680.899Q511.546 680.949 511.031 680.975Q510.517 681 510.001 681L20.999 681Q20.4835 681 19.9686 680.975Q19.4538 680.949 18.9407 680.899Q18.4277 680.848 17.9178 680.773Q17.4079 680.697 16.9023 680.596Q16.3967 680.496 15.8967 680.371Q15.3966 680.245 14.9033 680.096Q14.41 679.946 13.9246 679.772Q13.4393 679.599 12.963 679.401Q12.4868 679.204 12.0208 678.984Q11.5548 678.763 11.1001 678.52Q10.6455 678.277 10.2034 678.012Q9.7612 677.747 9.33258 677.461Q8.90396 677.175 8.48991 676.867Q8.07586 676.56 7.67738 676.233Q7.27889 675.906 6.89693 675.56Q6.51498 675.214 6.15046 674.849Q5.78595 674.485 5.43977 674.103Q5.09358 673.721 4.76655 673.323Q4.43953 672.924 4.13244 672.51Q3.82536 672.096 3.53897 671.667Q3.25257 671.239 2.98756 670.797Q2.72254 670.354 2.47954 669.9Q2.23653 669.445 2.01613 668.979Q1.79573 668.513 1.59845 668.037Q1.40118 667.561 1.22752 667.075Q1.05385 666.59 0.90421 666.097Q0.754569 665.603 0.629314 665.103Q0.504058 664.603 0.40349 664.098Q0.302921 663.592 0.227282 663.082Q0.151643 662.572 0.101116 662.059Q0.0505884 661.546 0.0252942 661.031Q0 660.516 0 660.001L0 20.999Q0 20.4835 0.0252942 19.9686Q0.0505884 19.4538 0.101116 18.9407Q0.151643 18.4277 0.227282 17.9178Q0.302921 17.4079 0.40349 16.9023Q0.504058 16.3967 0.629314 15.8967Q0.754569 15.3966 0.90421 14.9033Q1.05385 14.41 1.22752 13.9246Q1.40118 13.4393 1.59845 12.963Q1.79573 12.4868 2.01613 12.0208Q2.23653 11.5548 2.47954 11.1001Q2.72254 10.6455 2.98756 10.2034Q3.25257 9.7612 3.53897 9.33258Q3.82536 8.90396 4.13244 8.48991Q4.43953 8.07586 4.76655 7.67738Q5.09358 7.27889 5.43977 6.89693Q5.78595 6.51498 6.15046 6.15046Q6.51498 5.78595 6.89693 5.43977Q7.27889 5.09358 7.67738 4.76655Q8.07586 4.43953 8.48991 4.13244Q8.90396 3.82536 9.33258 3.53897Q9.7612 3.25257 10.2034 2.98756Q10.6455 2.72254 11.1001 2.47954Q11.5548 2.23653 12.0208 2.01613Q12.4868 1.79573 12.963 1.59845Q13.4393 1.40118 13.9246 1.22752Q14.41 1.05385 14.9033 0.90421Q15.3966 0.754569 15.8967 0.629314Q16.3967 0.504058 16.9023 0.40349Q17.4079 0.302921 17.9178 0.227282Q18.4277 0.151643 18.9407 0.101116Q19.4538 0.0505884 19.9686 0.0252942Q20.4835 0 20.999 0L20.999 0Z" transform="translate(1 1)" id="border" fill="none" fill-rule="evenodd" stroke="#FFFFFF" stroke-width="2" />
</svg>